<?xml version="1.0" encoding="UTF-8" standalone="no"?>

<svg
   width="296.99997mm"
   height="210mm"
   viewBox="0 0 1122.5196 793.70081"
   version="1.1"
   id="svg1"
   xml:space="preserve"
   xmlns:xlink="http://www.w3.org/1999/xlink"
   xmlns="http://www.w3.org/2000/svg"
   xmlns:svg="http://www.w3.org/2000/svg"><defs
     id="defs1"><linearGradient
       id="linearGradient13"><stop
         style="stop-color:#000000;stop-opacity:1;"
         offset="0"
         id="stop13" /><stop
         style="stop-color:#000000;stop-opacity:0;"
         offset="1"
         id="stop14" /></linearGradient><linearGradient
       id="linearGradient5"><stop
         style="stop-color:#424242;stop-opacity:1;"
         offset="0"
         id="stop5" /><stop
         style="stop-color:#000000;stop-opacity:1;"
         offset="1"
         id="stop6" /></linearGradient><linearGradient
       id="linearGradient3"><stop
         style="stop-color:#ffffff;stop-opacity:1;"
         offset="0"
         id="stop3" /><stop
         style="stop-color:#4a4a4a;stop-opacity:0;"
         offset="1"
         id="stop4" /></linearGradient><linearGradient
       xlink:href="#linearGradient3"
       id="linearGradient4"
       x1="406.99841"
       y1="35.277668"
       x2="416.57269"
       y2="295.81229"
       gradientUnits="userSpaceOnUse" /><radialGradient
       xlink:href="#linearGradient5"
       id="radialGradient6"
       cx="551.80835"
       cy="66.430977"
       fx="551.80835"
       fy="66.430977"
       r="531.43335"
       gradientTransform="matrix(0.99948102,-0.03221335,0.01531805,0.47527184,-12.246372,50.501437)"
       gradientUnits="userSpaceOnUse" /><linearGradient
       xlink:href="#linearGradient13"
       id="linearGradient14"
       x1="86.832336"
       y1="309.91483"
       x2="140.14073"
       y2="-451.65207"
       gradientUnits="userSpaceOnUse" /><filter
       style="color-interpolation-filters:sRGB"
       id="filter14"
       x="-0.12284471"
       y="-0.23602945"
       width="1.2456894"
       height="1.4720589"><feGaussianBlur
         stdDeviation="49.400018"
         id="feGaussianBlur14" /></filter></defs><g
     id="layer1"><rect
       style="fill:#1a1a1a;stroke-width:3.77953"
       id="rect14"
       width="1127.4849"
       height="805.01965"
       x="-6.8609629"
       y="-6.8609629"
       rx="14.280856"
       ry="7.6769524" /><path
       id="path14"
       style="fill:#000080;stroke-width:3.18052;filter:url(#filter14)"
       d="m 263.90369,227.77579 c -43.02915,0 -86.05829,0 -129.08742,0 0.005,167.43626 0.0113,334.87255 0.0169,502.30881 11.56951,-7.4e-4 23.13902,-0.002 34.70854,-0.003 4.99216,-4.44654 10.40527,-8.60834 16.0801,-12.54126 1.11833,-1.65754 2.22643,-3.31923 3.37401,-4.96498 0.007,-2.34313 0.0203,-4.68638 -0.0319,-7.02927 -3.91958,-4.79511 -7.37818,-9.79742 -11.0641,-14.69771 -7.75058,-4.3985 -14.22162,-9.98855 -19.87974,-15.9426 -6.78996,-7.64442 -10.657,-16.59872 -12.79867,-25.64355 -2.16017,-9.80403 -1.24075,-20.15451 3.85267,-29.36384 4.85927,-8.87878 13.27793,-16.63302 23.96549,-21.71464 7.0693,-7.67197 15.29908,-14.8829 25.46619,-20.21548 10.99845,-5.63052 24.4188,-8.48123 37.63026,-7.781 9.04339,0.23991 18.1534,0.77113 26.90491,2.64184 13.98532,2.99575 26.77303,8.99728 36.91992,16.9384 1.98664,1.46564 3.92798,3.01873 5.85166,4.49924 7.30874,-7.27807 15.90878,-13.87188 25.96589,-18.90805 11.82681,-6.01436 25.2964,-10.02814 39.21205,-12.07391 10.61866,-1.61565 21.45908,-2.13864 32.26517,-2.26372 11.82204,-0.26779 23.79302,-1.0535 35.60481,0.14803 10.86041,1.0147 21.58914,3.46565 31.01824,7.78241 12.71072,5.72942 23.06685,14.03158 32.04105,22.90302 4.98756,4.9311 9.59142,10.08074 14.24201,15.19967 4.93228,3.26818 9.2254,7.09382 12.70684,11.3204 1.83829,2.15141 3.44505,4.36445 5.35472,6.45942 1.99867,2.01543 4.08359,3.97945 6.0783,5.99706 -6.40376,-8.33598 -9.3488,-18.25596 -7.93404,-27.8899 0.31613,-3.54886 -0.4274,-7.08804 -0.35162,-10.63815 -0.16412,-8.43705 0.97808,-17.05116 5.21355,-24.90844 5.58852,-10.47325 15.91626,-19.29282 28.477,-25.15139 12.45692,-5.97352 26.49885,-9.65152 40.61552,-12.55582 6.82233,-1.36713 13.84701,-2.13144 20.88969,-2.328 10.28996,-1.82675 20.8703,-2.38815 31.39593,-2.71415 15.70765,-0.34905 31.41057,0.8483 47.11516,0.24232 9.23276,-0.28668 18.51209,-0.58006 27.71718,0.21993 5.96307,0.4906 11.85557,1.41798 17.6444,2.60087 2.0945,0.0986 4.18527,-0.15198 6.2823,-0.11514 5.50211,-0.11468 11.00714,-0.13128 16.50825,-0.27659 2.13805,-0.0684 4.45601,-0.12549 6.65584,-0.27895 7.83439,-0.63618 15.50611,-2.09919 23.11577,-3.60666 1.18321,-0.39113 2.16352,-1.03755 2.98147,-1.78917 3.20181,-2.50208 6.49138,-5.00547 8.81568,-8.0546 3.68839,-4.38453 8.685,-8.00362 13.90026,-11.30515 1.92107,-1.42416 3.3513,-3.0525 5.11731,-4.59266 3.74692,-3.50401 7.55831,-6.96965 11.15016,-10.56908 -8.81662,-5.90002 -15.05982,-13.81245 -18.8777,-22.24345 -0.5899,-1.49112 -1.78473,-2.77802 -2.64862,-4.17847 -1.71798,-2.50333 -3.11852,-5.1292 -4.16964,-7.84099 -1.93168,-4.74868 -2.7305,-9.71964 -3.02827,-14.67401 -0.88154,-6.28118 -1.03123,-12.65294 0.18241,-18.91521 2.8144,-15.59254 12.55427,-30.42646 27.39433,-41.31876 3.38334,-2.54056 6.33355,-5.40468 9.88799,-7.81381 6.86324,-4.79844 14.63553,-8.73654 22.33568,-12.68543 13.17455,-6.61078 27.32698,-11.94637 41.42664,-17.27395 10.77492,-4.13534 21.31861,-8.66776 32.50065,-12.14291 8.95971,-2.70435 18.36753,-4.49805 27.90698,-5.46792 4.21359,-0.7066 8.13387,-2.13613 12.15936,-3.28334 9.76169,-2.92606 19.76309,-5.5531 30.16539,-6.73941 19.8923,-2.64109 39.9562,-4.42698 59.8843,-6.89524 6.3617,-0.66497 12.7879,-0.93757 19.2066,-0.91107 0,-25.65406 0,-51.3081 0,-76.96215 -278.67799,4.8e-4 -557.35591,9.6e-4 -836.03383,0.001 z m 281.64848,408.8625 c 2.85747,3.37001 5.23961,6.96313 8.00254,10.37317 4.64631,3.67617 8.83622,7.68513 12.60753,11.90804 4.27459,1.99361 8.15139,4.43578 11.97797,6.8954 6.80474,-2.08629 13.86026,-3.66232 20.6323,-5.80919 0.70306,-0.31957 1.39242,-0.65607 2.072,-1.00416 -6.38788,-1.44804 -12.51157,-3.56147 -18.20623,-6.20874 -12.35651,-1.70557 -24.30113,-5.98775 -33.1758,-12.88879 -1.41718,-1.07606 -2.75543,-2.21248 -4.01728,-3.39673 0.0357,0.0437 0.0713,0.0873 0.10697,0.131 z" /><path
       d="m 10.341797,-3.9394533 c -7.9115941,0 -14.2812503,3.42470307 -14.2812503,7.6777347 V 789.90237 c 0,4.25303 6.3696562,7.67773 14.2812503,7.67773 H 119.24024 c 1.20488,-1.06759 2.39318,-2.15903 3.55859,-3.27929 6.38122,-6.13406 11.17925,-14.00892 17.33594,-20.40821 26.2209,-27.25409 7.59533,1.15713 27.44922,-36.10742 1.40689,-2.64065 3.59516,-4.90585 4.33398,-7.84961 0.83475,-3.32595 0.73842,-36.40317 0,-40.81641 -1.26575,-7.56487 -6.43374,-12.68656 -10.11328,-18.83789 -3.83617,-6.41318 -10.08869,-19.33207 -15.89062,-26.6875 -2.3088,-2.92702 -6.90863,-9.24908 -10.11328,-10.99023 -3.51479,-1.90968 0.45383,3.16115 0.33203,3.32226 -0.0955,0.056 -1.47338,-1.42111 -6.11133,-6.46094 -1.6862,-1.83232 -8.02685,-18.8189 -1.44531,-20.4082 3.79002,-0.91518 7.7061,-1.04702 11.55859,-1.57031 0,-2.09314 -0.67635,-4.31943 0,-6.2793 1.8276,-5.29589 11.75495,-18.16118 15.89063,-20.4082 1.38517,-0.75262 4.17769,0 5.77929,0 14.2399,0 18.61606,2.95981 28.89454,14.1289 3.13155,3.4029 7.68189,7.02837 10.11132,10.98829 2.96892,4.83925 5.36961,10.69242 10.11329,14.1289 3.29723,2.38861 19.40843,4.30813 23.11523,4.71094 3.3603,0.36513 12.6953,1.73608 15.89063,0 8.36625,-4.54559 17.44033,-12.18605 23.11523,-20.4082 1.29216,-1.8722 1.74922,-4.29481 2.89063,-6.2793 3.4868,-6.06229 10.28051,-14.77571 15.89062,-18.83985 13.95416,-10.10886 29.89501,-10.98828 46.23047,-10.98828 9.22912,0 28.79634,-3.2104 37.56055,3.13868 14.7155,10.6604 23.23192,28.3992 34.67383,42.38672 1.15354,1.41019 3.19062,1.7207 4.33398,3.14062 2.28671,2.83983 3.73488,6.36621 5.77735,9.41797 4.02561,6.01483 9.1371,11.13146 13.00195,17.26953 5.26267,9.29285 8.98664,16.00471 11.5586,20.74414 -0.13297,-1.21507 0.90614,-0.92213 4.33398,2.80274 8.54206,9.28223 5.10855,7.52458 11.55664,15.69922 -6.55859,8.95266 4.93921,3.79609 5.7793,4.70898 0.76142,0.82738 0.52195,2.53862 1.44531,3.14063 1.70257,1.11006 3.8511,1.04702 5.77734,1.57031 1.92625,1.56988 3.80675,3.20855 5.7793,4.70898 2.68906,2.04545 8.98041,7.54707 13.00196,9.41993 2.38361,1.11006 5.00087,1.68882 7.2246,3.13867 0.41294,0.26923 -0.46718,1.4434 0,1.57031 1.86873,0.50767 4.05446,-0.93608 5.77735,0 2.88937,1.56987 -1.44469,3.13911 0,4.70898 1.02154,1.11006 2.90609,0.2387 4.33398,0 5.32141,-0.88962 10.73562,-1.45754 15.89258,-3.13867 4.5428,-1.48094 8.55437,-4.48931 13.00196,-6.27929 8.56819,-3.44839 17.52041,-5.73251 26.0039,-9.41993 3.43537,-1.49322 19.24924,-12.51018 21.66993,-14.1289 2.43604,-5.32737 7.86517,-3.87126 11.55859,-6.2793 4.3357,-2.82684 6.74492,-8.89837 10.11328,-12.55859 1.22775,-1.33411 3.19064,-1.72073 4.33399,-3.14063 5.8355,-7.24705 5.52077,-9.28782 8.66796,-17.26758 1.90398,-4.82758 5.76865,-9.38901 7.22266,-14.12891 0.30455,-0.99286 -0.1889,-2.11436 0,-3.14062 0.82362,-4.47504 9.77726,-23.91156 7.22266,-26.6875 -0.34051,-0.37003 -0.9655,0.0649 -1.44336,0 -3.37886,-0.45895 -6.82312,-0.61497 -10.11328,-1.56836 -3.97555,-1.15201 -7.55154,-3.68691 -11.55664,-4.71094 -7.04702,-1.8018 -14.62486,0.23149 -21.67188,-1.57031 -12.26223,-3.13523 -12.94914,-6.84361 -23.11328,-7.84766 -2.87751,-0.28426 -5.83471,0.61574 -8.66797,0 -6.51048,-1.41493 -12.27409,-8.24142 -18.78125,-9.41992 -1.74462,-0.31596 -8.12902,-0.49222 -10.11328,-1.57031 -1.72289,-0.93609 0,-4.18614 0,-6.2793 0,-6.76884 -1.87028,-20.59046 0,-26.6875 2.71687,-8.85687 29.2177,-16.01803 36.11719,-17.26758 2.37502,-0.43014 4.82315,0.2173 7.22265,0 32.53638,-2.9463 -7.64352,-0.12461 17.33594,-3.14062 16.39846,-1.97994 34.08991,0 50.56445,0 10.84537,0 23.83223,-1.96315 34.67188,0 4.37936,0.79314 8.60307,2.503 13.00391,3.14062 6.68272,0.96825 13.48275,0 20.22461,0 21.78783,0 31.90437,-0.77161 53.45312,-6.28125 4.95334,-1.26649 12.81022,-2.60133 17.33594,-4.70898 1.25194,-0.58302 1.67238,-2.47678 2.89063,-3.13868 0.86145,-0.46806 2.02722,0.46803 2.88867,0 2.48395,-1.34961 22.7531,-22.50038 24.56055,-25.11914 1.73357,-2.51171 2.9255,-6.30013 5.77734,-7.84961 4.65882,-2.53126 13.59858,-14.37056 17.33594,-18.83789 16.54583,-19.77744 27.44922,-33.45717 27.44922,-59.6543 0,-3.54966 1.4709,-10.93221 0,-14.1289 -1.76931,-3.84525 -3.15716,-2.57356 -5.77735,-4.70899 -3.23723,-2.63832 -6.5415,-7.47927 -10.11328,-9.41992 -0.86145,-0.46803 -2.02918,0.46806 -2.89062,0 -0.43073,-0.23401 0.3405,-1.20031 0,-1.57031 -0.78622,-0.85434 -6.13521,-3.52732 -7.22266,-4.70899 -1.24014,-1.3476 -3.641,-9.10579 -4.33398,-10.98828 -2.16233,-5.87427 -0.94219,-0.47822 -4.33399,-7.84961 -0.6461,-1.40411 0.35037,-3.18797 0,-4.71094 -3.33402,-14.49161 0.48782,-27.65251 11.55664,-37.67578 1.33385,-1.20786 3.10624,-1.80648 4.33399,-3.14062 0.76141,-0.82739 0.68389,-2.3113 1.44531,-3.13868 3.4667,-3.76708 10.39441,-8.18768 14.44727,-10.99023 12.96218,-8.96341 26.48978,-15.1757 40.45117,-21.97656 8.25613,-4.02172 16.17956,-8.85109 24.55859,-12.56055 15.9794,-7.0742 13.38308,-2.99869 30.33985,-7.84766 10.67537,-3.05272 20.78448,-8.88111 31.7832,-10.99023 20.61998,-3.9541 41.67128,-5.71433 62.12108,-9.41797 10.8245,-1.9604 25.0969,0 36.1172,0 5.7063,0 14.5092,1.38016 20.2246,0 6.3802,-1.54066 7.3219,-3.14063 13.002,-3.14063 0.058,0 1.969,-0.0975 3.8105,-0.14062 V 3.7382814 c 0,-4.25303163 -6.3696,-7.6777347 -14.2812,-7.6777347 z"
       style="fill:url(#linearGradient14);stroke-width:3.77953"
       id="path7" /><path
       id="rect1"
       style="opacity:1;fill:url(#radialGradient6);stroke:url(#linearGradient4);stroke-width:5.3"
       d="M 52.586425,59.956539 H 1081.5915 c 7.9116,0 14.2808,4.853797 14.2808,10.882952 V 388.82731 c 0,6.02916 -6.3692,10.88295 -14.2808,10.88295 H 52.586425 c -7.911594,0 -14.280856,-4.85379 -14.280856,-10.88295 V 70.839491 c 0,-6.029155 6.369262,-10.882952 14.280856,-10.882952 z" /><path
       d="M 109.88665,199.30797 H 62.195707 v -7.64038 L 102.39995,131.73438 V 131.296 H 69.446618 v 15.46865 q 0,1.94142 -0.707406,2.75555 -0.707406,0.81414 -1.827466,0.81414 -1.061108,0 -1.768514,-0.81414 -0.707406,-0.81413 -0.707406,-2.75555 v -20.72926 h 42.739104 v 7.45252 l -40.204233,59.99583 v 0.56363 h 37.964113 v -18.34945 q 0,-1.94142 0.64846,-2.75555 0.70741,-0.81414 1.82746,-0.81414 1.12007,0 1.76853,0.81414 0.70739,0.81413 0.70739,2.75555 z m 48.75206,0 -22.99069,-48.911 h -1.47376 q -1.76852,0 -2.53488,-0.75152 -0.76635,-0.75151 -0.76635,-1.87878 0,-0.81415 0.35371,-1.44041 0.41264,-0.68888 1.00216,-0.93938 0.64845,-0.31314 1.94536,-0.31314 h 13.55861 q 1.76851,0 2.53488,0.75152 0.76635,0.75151 0.76635,1.94141 0,1.12727 -0.76635,1.87878 -0.76637,0.75152 -2.53488,0.75152 h -6.66141 l 20.22002,43.14939 19.92527,-43.14939 h -6.66141 q -1.76852,0 -2.53487,-0.75152 -0.76636,-0.75151 -0.76636,-1.94141 0,-1.12727 0.76636,-1.87878 0.76635,-0.75152 2.53487,-0.75152 h 13.49967 q 1.82746,0 2.59382,0.75152 0.76636,0.75151 0.76636,1.94141 0,0.81414 -0.4716,1.50302 -0.47162,0.68888 -1.06112,0.9394 -0.58951,0.18788 -3.30123,0.18788 l -31.36165,67.82409 h 7.7225 q 1.76852,0 2.53488,0.68888 0.76635,0.75153 0.76635,1.94141 0,1.12728 -0.76635,1.87879 -0.76636,0.75151 -2.53488,0.75151 h -28.53203 q -1.76851,0 -2.53487,-0.75151 -0.76636,-0.68889 -0.76636,-1.87879 0,-1.18988 0.76636,-1.94141 0.76636,-0.68888 2.53487,-0.68888 h 15.50398 z m 56.12087,-54.23423 v 7.95352 q 5.18764,-5.57372 9.37312,-7.703 4.18549,-2.1293 9.43208,-2.1293 5.65925,0 10.31633,2.56767 3.30123,1.87879 5.954,6.26262 2.71173,4.32119 2.71173,8.8929 v 33.12922 h 4.18548 q 1.76852,0 2.53487,0.75152 0.76636,0.68888 0.76636,1.87878 0,1.12728 -0.76636,1.87879 -0.76635,0.75151 -2.53487,0.75151 h -13.26385 q -1.82747,0 -2.59383,-0.75151 -0.76635,-0.75151 -0.76635,-1.87879 0,-1.1899 0.76635,-1.87878 0.76636,-0.75152 2.59383,-0.75152 h 4.12653 v -32.25245 q 0,-5.57373 -3.83178,-9.39391 -3.83178,-3.88282 -10.25738,-3.88282 -4.8929,0 -8.48888,2.12929 -3.59597,2.06665 -10.25738,10.39593 v 33.00396 h 5.6003 q 1.76851,0 2.53487,0.75152 0.76635,0.68888 0.76635,1.87878 0,1.12728 -0.76635,1.87879 -0.76636,0.75151 -2.53487,0.75151 h -16.15244 q -1.76852,0 -2.53487,-0.75151 -0.76636,-0.75151 -0.76636,-1.87879 0,-1.1899 0.76636,-1.87878 0.76635,-0.75152 2.53487,-0.75152 h 5.6003 v -43.6504 h -4.18548 q -1.76853,0 -2.53488,-0.75152 -0.76635,-0.75151 -0.76635,-1.94141 0,-1.12727 0.76635,-1.87878 0.76635,-0.75152 2.53488,-0.75152 z m 116.13244,27.24238 q 0,12.0242 -8.13515,20.54136 -8.07623,8.51716 -19.51262,8.51716 -11.5543,0 -19.6305,-8.51716 -8.07623,-8.57978 -8.07623,-20.54136 0,-12.02423 8.07623,-20.54138 8.0762,-8.57978 19.6305,-8.57978 11.43639,0 19.51262,8.51714 8.13515,8.51717 8.13515,20.60402 z m -5.01078,0 q 0,-9.89494 -6.66141,-16.84644 -6.60244,-6.95149 -16.03452,-6.95149 -9.43209,0 -16.09349,7.01412 -6.60246,6.95149 -6.60246,16.78381 0,9.76967 6.60246,16.78379 6.6614,7.01413 16.09349,7.01413 9.43208,0 16.03452,-6.95151 6.66141,-7.01412 6.66141,-16.84641 z m 27.23513,-27.24238 v 5.32323 q 6.3077,-7.20201 12.67436,-7.20201 3.83177,0 6.72035,2.19192 2.88859,2.12928 4.83395,6.51311 3.30122,-4.38383 6.6614,-6.51311 3.41912,-2.19192 6.83827,-2.19192 5.36448,0 8.5478,3.69494 4.18549,4.75958 4.18549,10.39594 v 36.76153 h 4.18549 q 1.76851,0 2.53486,0.75152 0.76637,0.68888 0.76637,1.87878 0,1.12728 -0.76637,1.87879 -0.76635,0.75151 -2.53486,0.75151 h -9.13733 v -41.52113 q 0,-4.00806 -2.29907,-6.63836 -2.29907,-2.63029 -5.30555,-2.63029 -2.71171,0 -5.71819,2.1919 -3.00647,2.12929 -6.83826,8.45453 v 34.88275 h 4.12654 q 1.76851,0 2.53486,0.75152 0.76636,0.68888 0.76636,1.87878 0,1.12728 -0.76636,1.87879 -0.76635,0.75151 -2.53486,0.75151 h -9.13734 v -41.14536 q 0,-4.19595 -2.35801,-6.88888 -2.29907,-2.75554 -5.18764,-2.75554 -2.65278,0 -5.2466,1.81615 -3.59598,2.56767 -7.54566,8.83028 v 34.88275 h 4.18548 q 1.76852,0 2.53487,0.75152 0.76636,0.68888 0.76636,1.87878 0,1.12728 -0.76636,1.87879 -0.76635,0.75151 -2.53487,0.75151 h -13.32281 q -1.76851,0 -2.53487,-0.75151 -0.76635,-0.75151 -0.76635,-1.87879 0,-1.1899 0.76635,-1.87878 0.76636,-0.75152 2.53487,-0.75152 h 4.18549 v -43.6504 h -4.18549 q -1.76851,0 -2.53487,-0.75152 -0.76635,-0.75151 -0.76635,-1.94141 0,-1.12727 0.76635,-1.87878 0.76636,-0.75152 2.53487,-0.75152 z m 122.67598,27.24238 q 0,12.0242 -8.13517,20.54136 -8.07621,8.51716 -19.5126,8.51716 -11.55431,0 -19.63052,-8.51716 -8.07622,-8.57978 -8.07622,-20.54136 0,-12.02423 8.07622,-20.54138 8.07621,-8.57978 19.63052,-8.57978 11.43639,0 19.5126,8.51714 8.13517,8.51717 8.13517,20.60402 z m -5.01079,0 q 0,-9.89494 -6.66141,-16.84644 -6.60245,-6.95149 -16.03453,-6.95149 -9.43208,0 -16.09348,7.01412 -6.60246,6.95149 -6.60246,16.78381 0,9.76967 6.60246,16.78379 6.6614,7.01413 16.09348,7.01413 9.43208,0 16.03453,-6.95151 6.66141,-7.01412 6.66141,-16.84641 z m 33.77861,-27.24238 v 7.95352 q 5.18764,-5.57372 9.37312,-7.703 4.18549,-2.1293 9.43208,-2.1293 5.65925,0 10.31633,2.56767 3.30123,1.87879 5.954,6.26262 2.71173,4.32119 2.71173,8.8929 v 33.12922 h 4.18548 q 1.76852,0 2.53488,0.75152 0.76635,0.68888 0.76635,1.87878 0,1.12728 -0.76635,1.87879 -0.76636,0.75151 -2.53488,0.75151 h -13.26386 q -1.82746,0 -2.59382,-0.75151 -0.76636,-0.75151 -0.76636,-1.87879 0,-1.1899 0.76636,-1.87878 0.76636,-0.75152 2.59382,-0.75152 h 4.12654 v -32.25245 q 0,-5.57373 -3.83178,-9.39391 -3.83178,-3.88282 -10.25739,-3.88282 -4.8929,0 -8.48887,2.12929 -3.59598,2.06665 -10.25738,10.39593 v 33.00396 h 5.60029 q 1.76851,0 2.53487,0.75152 0.76635,0.68888 0.76635,1.87878 0,1.12728 -0.76635,1.87879 -0.76636,0.75151 -2.53487,0.75151 h -16.15244 q -1.76851,0 -2.53486,-0.75151 -0.76637,-0.75151 -0.76637,-1.87879 0,-1.1899 0.76637,-1.87878 0.76635,-0.75152 2.53486,-0.75152 h 5.60031 v -43.6504 h -4.1855 q -1.7685,0 -2.53486,-0.75152 -0.76636,-0.75151 -0.76636,-1.94141 0,-1.12727 0.76636,-1.87878 0.76636,-0.75152 2.53486,-0.75152 z m 175.14191,54.23423 v -7.57776 q -10.78794,9.64443 -23.04965,9.64443 -8.90151,0 -13.91231,-4.75959 -5.01079,-4.82222 -5.01079,-11.77373 0,-7.64037 6.60246,-13.33935 6.60244,-5.69898 19.27681,-5.69898 3.41912,0 7.42776,0.50102 4.00863,0.43837 8.66572,1.44039 v -8.51715 q 0,-4.3212 -3.77282,-7.51515 -3.77284,-3.19391 -11.3185,-3.19391 -5.77715,0 -16.21138,3.56968 -1.88642,0.62626 -2.41698,0.62626 -0.9432,0 -1.65061,-0.75151 -0.64846,-0.75152 -0.64846,-1.87878 0,-1.06465 0.58951,-1.69092 0.82531,-0.93938 6.66139,-2.56766 9.19629,-2.6303 13.91232,-2.6303 9.37313,0 14.61972,4.94746 5.2466,4.88484 5.2466,11.08483 v 34.82012 h 6.60245 q 1.82747,0 2.59382,0.75152 0.76636,0.68888 0.76636,1.87878 0,1.12728 -0.76636,1.87879 -0.76635,0.75151 -2.59382,0.75151 z m 0,-26.17772 q -3.47808,-1.06465 -7.36882,-1.56565 -3.89072,-0.50101 -8.19411,-0.50101 -10.78793,0 -16.85984,4.94747 -4.59814,3.69493 -4.59814,8.83026 0,4.7596 3.47808,8.01616 3.53703,3.25656 10.25738,3.25656 6.42561,0 11.90801,-2.69292 5.54134,-2.75556 11.37744,-8.70504 z m 85.00659,0.31312 h -50.46162 q 1.2969,10.20807 8.01726,16.47069 6.77931,6.19998 16.74194,6.19998 5.54134,0 11.61325,-1.94142 6.07189,-1.9414 9.90367,-5.13533 1.12006,-0.93939 1.94537,-0.93939 0.94321,0 1.65061,0.81413 0.70741,0.75152 0.70741,1.81616 0,1.06464 -0.94321,2.06666 -2.82962,3.13132 -10.08052,5.88686 -7.19196,2.69293 -14.79658,2.69293 -12.73331,0 -21.28113,-8.83029 -8.48888,-8.89291 -8.48888,-21.48076 0,-11.46058 7.95832,-19.66461 8.01728,-8.20402 19.80737,-8.20402 12.1438,0 19.98421,8.45452 7.84042,8.39191 7.72253,21.79389 z m -5.0108,-5.32321 q -1.47376,-8.70504 -7.78146,-14.1535 -6.24875,-5.44847 -14.91448,-5.44847 -8.66572,0 -14.91447,5.38584 -6.24875,5.38584 -7.78146,14.21613 z m 53.17337,-47.40798 v 73.33519 h 19.45367 q 1.82747,0 2.59382,0.75152 0.76635,0.68888 0.76635,1.87878 0,1.12728 -0.76635,1.87879 -0.76635,0.75151 -2.59382,0.75151 h -43.85917 q -1.76851,0 -2.53487,-0.75151 -0.76635,-0.75151 -0.76635,-1.87879 0,-1.1899 0.76635,-1.87878 0.76636,-0.75152 2.53487,-0.75152 h 19.45367 v -68.01198 h -14.26602 q -1.76852,0 -2.59382,-0.7515 -0.76637,-0.75152 -0.76637,-1.94141 0,-1.12727 0.76637,-1.87879 0.76635,-0.75151 2.59382,-0.75151 z m 72.39119,-2.6303 v 13.58987 h -7.30987 v -13.58987 z m 0.17685,26.99186 v 48.97363 h 19.45366 q 1.82747,0 2.59382,0.75152 0.76636,0.68888 0.76636,1.87878 0,1.12728 -0.76636,1.87879 -0.76635,0.75151 -2.59382,0.75151 h -43.85917 q -1.7685,0 -2.53487,-0.75151 -0.76636,-0.75151 -0.76636,-1.87879 0,-1.1899 0.76636,-1.87878 0.76637,-0.75152 2.53487,-0.75152 h 19.45367 v -43.6504 h -14.44287 q -1.76851,0 -2.59382,-0.75152 -0.76636,-0.75151 -0.76636,-1.87878 0,-1.1899 0.76636,-1.94141 0.76635,-0.75152 2.59382,-0.75152 z m 86.77505,54.23423 v -7.70301 q -10.13947,9.76968 -21.92958,9.76968 -7.25082,0 -11.02374,-4.19597 -4.89286,-5.51108 -4.89286,-12.83835 v -33.94335 h -6.6614 q -1.76851,0 -2.53486,-0.75152 -0.76637,-0.75151 -0.76637,-1.94141 0,-1.12727 0.76637,-1.87878 0.76635,-0.75152 2.53486,-0.75152 h 11.61321 v 39.26658 q 0,5.13534 3.06548,8.45453 3.0654,3.31919 7.66353,3.31919 12.08483,0 22.16536,-11.77372 v -33.94335 h -9.13732 q -1.76853,0 -2.53481,-0.75152 -0.76636,-0.75151 -0.76636,-1.94141 0,-1.12727 0.76636,-1.87878 0.76628,-0.75152 2.53481,-0.75152 h 14.08922 v 48.97363 h 4.18543 q 1.76852,0 2.5349,0.75152 0.76637,0.68888 0.76637,1.87878 0,1.12728 -0.76637,1.87879 -0.76638,0.75151 -2.5349,0.75151 z m 71.86067,-50.78978 q 0,-1.81617 0.7075,-2.6303 0.7074,-0.81415 1.7685,-0.81415 1.12,0 1.8275,0.81415 0.7074,0.81413 0.7074,2.75555 v 9.01816 q 0,1.87877 -0.7074,2.69291 -0.7075,0.81415 -1.8275,0.81415 -1.0022,0 -1.7096,-0.68889 -0.6485,-0.68888 -0.7664,-2.25453 -0.3537,-3.75758 -3.655,-6.19999 -4.8338,-3.50706 -12.7922,-3.50706 -8.312,0 -12.9101,3.56968 -3.4781,2.69292 -3.4781,6.01211 0,3.75757 4.1266,6.26262 2.8296,1.75353 10.729,2.69291 10.3163,1.1899 14.3248,2.69293 5.7184,2.19191 8.4891,6.07474 2.8295,3.88281 2.8295,8.39189 0,6.70099 -6.0719,11.96159 -6.072,5.19798 -17.803,5.19798 -11.7312,0 -19.2179,-6.32524 0,2.12927 -0.2358,2.75555 -0.2358,0.62625 -0.8843,1.06463 -0.5895,0.43839 -1.3558,0.43839 -1.0611,0 -1.7685,-0.81414 -0.7074,-0.81413 -0.7074,-2.69293 v -10.83431 q 0,-1.8788 0.6484,-2.69293 0.7075,-0.81414 1.8275,-0.81414 1.0611,0 1.7685,0.81414 0.7664,0.75151 0.7664,2.06666 0,2.88081 1.3558,4.82221 2.0633,3.00606 6.5435,5.01009 4.5392,1.94142 11.0827,1.94142 9.6679,0 14.3839,-3.8202 4.716,-3.82019 4.716,-8.07877 0,-4.88483 -4.7749,-7.82827 -4.8339,-2.94343 -14.0892,-3.94543 -9.1962,-1.00202 -13.2049,-2.6303 -4.0086,-1.62829 -6.2488,-4.88485 -2.2401,-3.25655 -2.2401,-7.01413 0,-6.76361 6.2488,-10.70906 6.2488,-4.00807 14.9145,-4.00807 10.2573,0 16.6829,5.32323 z"
       id="text6"
       style="font-size:127.194px;font-family:Monospace;-inkscape-font-specification:Monospace;fill:#ffffff;stroke-width:54.96"
       aria-label="Zynomon aelius" /><path
       id="rect6"
       style="opacity:1;fill:#ffffff;stroke-width:5.3"
       d="M 77.846965,238.37291 H 1044.6727 c 7.9116,0 14.2809,0.32216 14.2809,0.72234 0,0.40018 -6.3693,0.72234 -14.2809,0.72234 H 77.846965 c -7.911594,0 -14.280856,-0.32216 -14.280856,-0.72234 0,-0.40018 6.369262,-0.72234 14.280856,-0.72234 z" /><g
       style="fill:#ffffff;fill-opacity:1"
       id="g15"
       transform="matrix(0.41507333,0,0,0.41401988,585.96493,567.66658)"><path
         display="inline"
         d="M 483.111,0.501 440.521,461.815 255.997,511.499 71.47,461.815 28.889,0.501 Z M 397.29,94.302 H 255.831 111.866 l 6.885,55.708 h 137.08 7.7 l -7.7,3.205 -132.07,55.006 4.38,54.453 127.69,0.414 68.438,0.217 -4.381,72.606 -64.058,18.035 v -0.057 l -0.525,0.146 -61.864,-15.617 -3.754,-45.07 h -0.205 -57.382 -0.202 l 7.511,87.007 116.423,34.429 v -0.062 l 0.21,0.062 115.799,-33.802 15.021,-172.761 h -131.03 -0.323 l 0.323,-0.14 135.83,-58.071 z"
         id="path1-3"
         style="fill:#ffffff;fill-opacity:1"
         transform="matrix(0.4579893,0,0,0.52303541,-50.880554,141.34462)">

</path><path
         d="M 302.553,0 H 10 C 4.477,0 0,4.478 0,10 v 292.553 c 0,5.522 4.477,10 10,10 h 292.553 c 5.523,0 10,-4.478 10,-10 V 10 c 0,-5.522 -4.477,-10 -10,-10 z M 143.625,173.732 c 0,18.615 -10.434,30.179 -27.232,30.179 -10.55,0 -19.978,-5.292 -26.547,-14.901 -2.905,-4.251 -1.815,-10.053 2.436,-12.959 4.252,-2.906 10.055,-1.814 12.959,2.436 3.074,4.498 6.826,6.778 11.152,6.778 3.419,0 8.586,0 8.586,-11.532 V 126.266 H 99.504 c -5.149,0 -9.323,-4.174 -9.323,-9.323 0,-5.149 4.174,-9.323 9.323,-9.323 h 34.798 c 5.149,0 9.323,4.174 9.323,9.323 z m 45.816,31.868 c -12.499,0 -25.251,-5.27 -33.279,-13.753 -3.54,-3.74 -3.377,-9.642 0.362,-13.181 3.741,-3.54 9.644,-3.377 13.181,0.362 4.486,4.74 12.417,7.925 19.736,7.925 7.493,0 16.244,-2.188 16.244,-8.351 0.048,-5.81 -3.045,-7.986 -17.415,-12.339 -12.677,-3.839 -31.835,-9.642 -31.835,-31.725 0,-16.5 14.306,-27.586 35.599,-27.586 9.479,0 19.815,2.874 26.975,7.502 4.324,2.795 5.564,8.567 2.769,12.892 -2.796,4.324 -8.568,5.564 -12.892,2.769 -4.112,-2.658 -11.042,-4.516 -16.852,-4.516 -7.82,0 -16.952,2.342 -16.952,8.939 0,7.165 4.189,9.516 18.594,13.879 12.277,3.718 30.83,9.337 30.656,30.262 -0.001,16.071 -14.022,26.921 -34.891,26.921 z"
         id="path1-68"
         style="fill:#ffffff;fill-opacity:1"
         transform="matrix(0.80374099,0,0,0.81579575,147.02886,239.32769)" /><path
         d="m 8.5,9.5 3,3 -3,3 m 4.5,0 h 4 M 5.5,6.5 h 14 v 12 h -14 z"
         stroke="#121923"
         stroke-width="1.2"
         id="path1-18"
         style="fill:none;fill-opacity:1;stroke:#ffffff;stroke-opacity:1"
         transform="matrix(15.036383,0,0,17.435092,414.04649,132.84399)" /><path
         d="M 29.86,8 C 29.636,7.615 29.328,7.276 28.989,7.079 L 17.234,0.292 c -0.677,-0.391 -1.787,-0.391 -2.464,0 L 3.015,7.079 C 2.338,7.47 1.78,8.432 1.78,9.214 v 13.573 c 0,0.391 0.14,0.828 0.364,1.213 0.219,0.385 0.532,0.724 0.871,0.917 l 11.749,6.791 c 0.683,0.391 1.787,0.391 2.464,0 l 11.755,-6.791 c 0.339,-0.193 0.647,-0.532 0.871,-0.917 0.224,-0.385 0.359,-0.823 0.359,-1.213 V 9.214 C 30.218,8.823 30.078,8.386 29.86,8.001 Z M 16,25.479 C 10.771,25.479 6.521,21.23 6.521,16 6.521,10.77 10.77,6.521 16,6.521 c 3.385,0.005 6.511,1.812 8.208,4.733 L 20.104,13.63 C 19.255,12.166 17.693,11.265 16,11.259 c -2.615,0 -4.74,2.125 -4.74,4.74 0,2.615 2.125,4.74 4.74,4.74 1.693,-0.005 3.255,-0.907 4.104,-2.371 l 4.104,2.376 C 22.511,23.665 19.385,25.472 16,25.477 Z m 9.479,-8.952 h -1.052 v 1.052 H 23.37 v -1.052 h -1.052 v -1.053 h 1.052 v -1.052 h 1.057 v 1.052 h 1.052 z m 3.948,0 h -1.052 v 1.052 h -1.052 v -1.052 h -1.052 v -1.053 h 1.052 v -1.052 h 1.052 v 1.052 h 1.052 z"
         id="path1-1"
         style="fill:#ffffff;fill-opacity:1"
         transform="matrix(7.7296611,0,0,7.9761514,-533.6303,204.42764)" /><path
         d="M 21.693,3.162 H 3.33 L 0,6.49 V 20.838 H 20.671 L 24,17.51 V 3.162 Z M 12.785,18.4 11.223,19.128 9.873,16.911 c -0.196,0.057 -0.499,0.09 -0.924,0.09 -1.579,0 -2.683,-0.425 -3.305,-1.276 -0.622,-0.85 -0.932,-2.2 -0.932,-4.033 0,-1.84 0.319,-3.206 0.949,-4.098 0.63,-0.892 1.726,-1.341 3.288,-1.341 1.562,0 2.658,0.441 3.28,1.333 0.63,0.883 0.94,2.25 0.94,4.098 0,1.219 -0.13,2.2 -0.384,2.945 -0.261,0.752 -0.679,1.325 -1.268,1.718 z m 4.736,-1.587 c -0.858,0 -1.447,-0.196 -1.766,-0.59 -0.32,-0.392 -0.483,-1.136 -0.483,-2.232 V 10.457 H 14.11 V 9.051 h 1.162 V 6.843 h 1.644 V 9.05 h 2.094 v 1.415 h -2.094 v 3.346 c 0,0.622 0.05,1.03 0.14,1.227 0.09,0.204 0.326,0.303 0.695,0.303 l 1.243,-0.05 0.073,1.326 c -0.67,0.13 -1.186,0.196 -1.546,0.196 z m -8.58,-9.08 c -0.95,0 -1.604,0.311 -1.963,0.94 -0.352,0.63 -0.532,1.629 -0.532,3.011 0,1.374 0.172,2.364 0.515,2.953 0.344,0.589 1.006,0.892 1.98,0.892 0.973,0 1.628,-0.295 1.971,-0.876 0.335,-0.58 0.507,-1.57 0.507,-2.953 0,-1.39 -0.172,-2.396 -0.523,-3.026 C 10.544,8.044 9.89,7.734 8.941,7.734 Z"
         id="path1"
         style="fill:#ffffff;fill-opacity:1"
         transform="matrix(13.516838,0,0,12.641994,-921.3705,182.23857)" /><path
         display="inline"
         d="M 30.713,0.501 71.717,460.42 255.723,511.498 440.238,460.348 481.287,0.501 Z m 365.041,109.145 -2.567,28.596 -1.128,12.681 H 391.872 256 255.803 176.204 l 5.155,57.761 h 74.444 0.197 115.723 15.201 l -1.377,15.146 -13.255,148.506 -0.849,9.523 L 256,413.854 v 0.012 l -0.259,0.072 -115.547,-32.078 -7.903,-88.566 h 26.098 30.526 l 4.016,44.986 62.82,16.965 0.052,-0.014 v -0.006 l 62.916,-16.977 6.542,-73.158 H 256 255.803 129.771 L 115.908,109.646 114.557,94.515 H 255.804 256 397.104 Z"
         id="path1-6"
         style="fill:#ffffff;fill-opacity:1"
         transform="matrix(0.47726969,0,0,0.51047113,-234.5603,232.47606)">

</path><path
         id="rect17"
         style="opacity:1;fill:none;stroke:#ffffff;stroke-width:17.0908"
         d="M -866.9238,101.46631 H 829.04611 c 7.58492,0 13.69119,1.4303 13.69119,3.20695 0,1.77664 -6.10627,3.20694 -13.69119,3.20694 H -866.9238 c -7.58492,0 -13.69119,-1.4303 -13.69119,-3.20694 0,-1.77665 6.10627,-3.20695 13.69119,-3.20695 z" /></g><path
       d="m 161.93901,280.0056 q 0,-0.97091 0.35986,-1.40611 0.3599,-0.43523 0.89974,-0.43523 0.56983,0 0.92973,0.43523 0.35988,0.4352 0.35988,1.47307 v 4.82096 q 0,1.00437 -0.35988,1.43961 -0.3599,0.43524 -0.92973,0.43524 -0.50985,0 -0.86973,-0.36826 -0.3299,-0.36828 -0.38987,-1.20525 -0.17989,-2.00875 -1.85947,-3.31445 -2.45925,-1.87481 -6.50801,-1.87481 -4.22874,0 -6.56803,1.90829 -1.76946,1.43964 -1.76946,3.21399 0,2.00875 2.09936,3.34795 1.43956,0.9374 5.45835,1.43956 5.24841,0.63609 7.28779,1.43961 2.90912,1.17177 4.31871,3.24749 1.43955,2.07568 1.43955,4.48618 0,3.58227 -3.08907,6.39453 -3.08906,2.77874 -9.05725,2.77874 -5.9682,0 -9.77706,-3.38138 0,1.13825 -0.12008,1.47307 -0.12008,0.33481 -0.44987,0.56914 -0.2999,0.23437 -0.68979,0.23437 -0.53983,0 -0.89971,-0.43525 -0.3599,-0.43524 -0.3599,-1.4396 v -5.79188 q 0,-1.00437 0.32989,-1.43961 0.3599,-0.4352 0.92972,-0.4352 0.53983,0 0.89974,0.4352 0.38988,0.40177 0.38988,1.10483 0,1.54003 0.68979,2.57791 1.04967,1.60697 3.32901,2.67832 2.30928,1.03784 5.6383,1.03784 4.91851,0 7.31778,-2.04222 2.39926,-2.04221 2.39926,-4.31881 0,-2.61137 -2.42925,-4.18489 -2.45925,-1.57351 -7.16782,-2.10917 -4.67861,-0.53568 -6.71799,-1.40613 -2.03938,-0.87045 -3.17904,-2.61137 -1.13965,-1.74092 -1.13965,-3.74966 0,-3.61575 3.17903,-5.72493 3.17904,-2.14263 7.58771,-2.14263 5.21842,0 8.48745,2.84571 z m 42.61711,12.72204 q 0,6.42799 -4.13875,10.98114 -4.10877,4.55316 -9.92698,4.55316 -5.87824,0 -9.98701,-4.55316 -4.10878,-4.58663 -4.10878,-10.98114 0,-6.42797 4.10878,-10.98113 4.10877,-4.58662 9.98701,-4.58662 5.81821,0 9.92698,4.55315 4.13875,4.55314 4.13875,11.0146 z m -2.54923,0 q 0,-5.28969 -3.38897,-9.00585 -3.35897,-3.71619 -8.15755,-3.71619 -4.79854,0 -8.18753,3.74966 -3.35898,3.71618 -3.35898,8.97238 0,5.22274 3.35898,8.9724 3.38899,3.74966 8.18753,3.74966 4.79858,0 8.15755,-3.71616 3.38897,-3.74967 3.38897,-9.0059 z m 13.8558,-14.56338 v 2.84571 q 3.20905,-3.85008 6.44807,-3.85008 1.9494,0 3.41897,1.17175 1.46955,1.13829 2.45924,3.48184 1.6795,-2.34355 3.38901,-3.48184 1.73946,-1.17175 3.47892,-1.17175 2.72919,0 4.3487,1.97523 2.12936,2.54442 2.12936,5.55755 v 19.65221 h 2.12936 q 0.89972,0 1.28961,0.40177 0.38987,0.36827 0.38987,1.00434 0,0.60264 -0.38987,1.00437 -0.38989,0.40178 -1.28961,0.40178 h -4.6486 v -22.19665 q 0,-2.14264 -1.16967,-3.54879 -1.16961,-1.4061 -2.69917,-1.4061 -1.37957,0 -2.90913,1.17177 -1.52953,1.13825 -3.47892,4.51966 v 18.64785 h 2.09935 q 0.89973,0 1.28958,0.40177 0.38991,0.36827 0.38991,1.00434 0,0.60264 -0.38991,1.00437 -0.38985,0.40178 -1.28958,0.40178 h -4.64858 v -21.99579 q 0,-2.24307 -1.19965,-3.68267 -1.16964,-1.47308 -2.6392,-1.47308 -1.34958,0 -2.6692,0.97091 -1.82944,1.37263 -3.83886,4.72052 v 18.64785 h 2.12939 q 0.8997,0 1.28959,0.40177 0.38989,0.36827 0.38989,1.00434 0,0.60264 -0.38989,1.00437 -0.38989,0.40178 -1.28959,0.40178 h -6.77798 q -0.89973,0 -1.28959,-0.40178 -0.38988,-0.40173 -0.38988,-1.00437 0,-0.63607 0.38988,-1.00434 0.38986,-0.40177 1.28959,-0.40177 h 2.12937 v -23.33491 h -2.12937 q -0.89973,0 -1.28959,-0.40177 -0.38988,-0.40173 -0.38988,-1.03783 0,-0.60261 0.38988,-1.00439 0.38986,-0.40172 1.28959,-0.40172 z m 61.96131,15.16601 h -25.67226 q 0.65981,5.45706 4.07878,8.80499 3.44896,3.31444 8.51744,3.31444 2.81914,0 5.9082,-1.03784 3.08908,-1.03788 5.03849,-2.7453 0.56983,-0.5022 0.98967,-0.5022 0.47988,0 0.83978,0.43523 0.35988,0.40173 0.35988,0.9709 0,0.56915 -0.47987,1.10482 -1.43955,1.67393 -5.12844,3.14702 -3.65889,1.43961 -7.52771,1.43961 -6.47807,0 -10.82673,-4.72057 -4.3187,-4.75404 -4.3187,-11.48329 0,-6.12667 4.04877,-10.51245 4.07876,-4.38574 10.07695,-4.38574 6.17814,0 10.16695,4.51965 3.98878,4.4862 3.9288,11.65073 z m -2.54923,-2.84569 q -0.74978,-4.65362 -3.95882,-7.5663 -3.17902,-2.91268 -7.5877,-2.91268 -4.40866,0 -7.5877,2.87917 -3.17904,2.87924 -3.95882,7.59981 z m 39.85796,2.24306 q 0,6.42799 -4.13875,10.98114 -4.10875,4.55316 -9.92699,4.55316 -5.87822,0 -9.98699,-4.55316 -4.10876,-4.58663 -4.10876,-10.98114 0,-6.42797 4.10876,-10.98113 4.10877,-4.58662 9.98699,-4.58662 5.81824,0 9.92699,4.55315 4.13875,4.55314 4.13875,11.0146 z m -2.54922,0 q 0,-5.28969 -3.38897,-9.00585 -3.359,-3.71619 -8.15755,-3.71619 -4.79853,0 -8.18752,3.74966 -3.359,3.71618 -3.359,8.97238 0,5.22274 3.359,8.9724 3.38899,3.74966 8.18752,3.74966 4.79855,0 8.15755,-3.71616 3.38897,-3.74967 3.38897,-9.0059 z m 17.18482,-14.56338 v 4.25181 q 2.6392,-2.97961 4.76856,-4.11793 2.12935,-1.13825 4.79854,-1.13825 2.87914,0 5.24842,1.37263 1.67949,1.00437 3.02908,3.34789 1.37959,2.31009 1.37959,4.75403 v 17.71044 h 2.12935 q 0.89974,0 1.28961,0.40177 0.38988,0.36827 0.38988,1.00434 0,0.60264 -0.38988,1.00437 -0.38987,0.40178 -1.28961,0.40178 h -6.74796 q -0.92972,0 -1.31961,-0.40178 -0.38987,-0.40173 -0.38987,-1.00437 0,-0.63607 0.38987,-1.00434 0.38989,-0.40177 1.31961,-0.40177 h 2.09936 v -17.24171 q 0,-2.97965 -1.94942,-5.02187 -1.9494,-2.0757 -5.21841,-2.0757 -2.48926,0 -4.31869,1.13827 -1.82946,1.1048 -5.21842,5.55753 v 17.64348 h 2.84911 q 0.89975,0 1.28963,0.40177 0.38988,0.36827 0.38988,1.00434 0,0.60264 -0.38988,1.00437 -0.38988,0.40178 -1.28963,0.40178 h -8.21752 q -0.89972,0 -1.28958,-0.40178 -0.38989,-0.40173 -0.38989,-1.00437 0,-0.63607 0.38989,-1.00434 0.38986,-0.40177 1.28958,-0.40177 h 2.84915 v -23.33491 h -2.12935 q -0.89971,0 -1.2896,-0.40177 -0.38989,-0.40173 -0.38989,-1.03783 0,-0.60261 0.38989,-1.00439 0.38989,-0.40172 1.2896,-0.40172 z m 58.63229,15.16601 h -25.67225 q 0.6598,5.45706 4.07877,8.80499 3.44895,3.31444 8.51741,3.31444 2.81916,0 5.90822,-1.03784 3.08906,-1.03788 5.03849,-2.7453 0.56982,-0.5022 0.9897,-0.5022 0.47987,0 0.83975,0.43523 0.3599,0.40173 0.3599,0.9709 0,0.56915 -0.47986,1.10482 -1.43957,1.67393 -5.12845,3.14702 -3.65889,1.43961 -7.52775,1.43961 -6.47803,0 -10.82672,-4.72057 -4.31869,-4.75404 -4.31869,-11.48329 0,-6.12667 4.04877,-10.51245 4.07878,-4.38574 10.07697,-4.38574 6.17812,0 10.16692,4.51965 3.98881,4.4862 3.92882,11.65073 z m -2.54925,-2.84569 q -0.74974,-4.65362 -3.95879,-7.5663 -3.17903,-2.91268 -7.5877,-2.91268 -4.40867,0 -7.58772,2.87917 -3.17904,2.87924 -3.9588,7.59981 z m 71.31849,16.67256 -3.11907,0.0338 -5.54833,-18.0787 -5.51832,18.0787 -3.11907,-0.0338 -5.21843,-26.14717 h -1.22962 q -0.89972,0 -1.28961,-0.40177 -0.38986,-0.40173 -0.38986,-1.03783 0,-0.60261 0.38986,-1.00439 0.38989,-0.40172 1.28961,-0.40172 h 6.92791 q 0.89974,0 1.28962,0.40172 0.38987,0.40178 0.38987,1.03788 0,0.60261 -0.38987,1.00434 -0.38988,0.40177 -1.28962,0.40177 h -3.20902 l 4.46865,22.29708 5.36838,-17.81089 h 2.99908 l 5.51835,17.81089 4.28869,-22.29708 h -3.17904 q -0.89971,0 -1.31959,-0.40177 -0.38989,-0.40173 -0.38989,-1.03783 0,-0.60261 0.38989,-1.00439 0.38988,-0.40172 1.31959,-0.40172 h 6.89793 q 0.9297,0 1.31959,0.40172 0.38989,0.40178 0.38989,1.03788 0,0.60261 -0.38989,1.00434 -0.38989,0.40177 -1.31959,0.40177 h -1.19966 z m 29.4211,-43.42239 v 7.26496 h -3.71886 v -7.26496 z m 0.09,14.42951 v 26.18062 h 9.89701 q 0.92974,0 1.3196,0.40177 0.38988,0.36827 0.38988,1.00434 0,0.60264 -0.38988,1.00437 -0.38986,0.40178 -1.3196,0.40178 h -22.3132 q -0.89975,0 -1.28963,-0.40178 -0.38985,-0.40173 -0.38985,-1.00437 0,-0.63607 0.38985,-1.00434 0.38988,-0.40177 1.28963,-0.40177 h 9.89699 v -23.33491 h -7.34775 q -0.89975,0 -1.31963,-0.40177 -0.38987,-0.40173 -0.38987,-1.00434 0,-0.6361 0.38987,-1.03788 0.38989,-0.40172 1.31963,-0.40172 z m 30.35085,0 h 13.67586 q 0.89972,0 1.28961,0.40172 0.38989,0.40178 0.38989,1.03788 0,0.60261 -0.38989,1.00434 -0.38989,0.40177 -1.28961,0.40177 h -13.67586 v 18.71482 q 0,2.44394 1.73947,4.08443 1.76946,1.64048 5.15845,1.64048 2.54922,0 5.51833,-0.83699 2.9691,-0.87042 4.61859,-1.94177 0.59983,-0.43523 0.98972,-0.43523 0.47985,0 0.83976,0.43523 0.35988,0.40172 0.35988,0.97087 0,0.50219 -0.38989,0.93744 -0.95972,1.10481 -4.67859,2.41048 -3.68889,1.27221 -7.07786,1.27221 -4.40866,0 -7.01789,-2.31005 -2.60919,-2.31008 -2.60919,-6.2271 v -18.71482 h -4.64867 q -0.89974,0 -1.28959,-0.40177 -0.38989,-0.40173 -0.38989,-1.03783 0,-0.60261 0.38989,-1.00439 0.38985,-0.40172 1.28959,-0.40172 h 4.64861 v -8.30283 q 0,-1.00437 0.35988,-1.43962 0.35989,-0.43524 0.89973,-0.43524 0.56983,0 0.92973,0.43524 0.35988,0.43525 0.35988,1.43962 z m 33.73981,-13.02338 v 17.30869 q 2.39928,-2.91268 4.58862,-4.08445 2.21932,-1.20523 4.9485,-1.20523 2.93911,0 4.97849,1.17175 2.06939,1.13829 3.44896,3.54877 1.3796,2.37702 1.3796,5.02185 v 17.44262 h 2.81913 q 0.92972,0 1.28962,0.40177 0.38989,0.36827 0.38989,1.00434 0,0.60264 -0.38989,1.00437 -0.3599,0.40178 -1.28962,0.40178 h -8.18753 q -0.92969,0 -1.31958,-0.40178 -0.38989,-0.40173 -0.38989,-1.00437 0,-0.63607 0.38989,-1.00434 0.38989,-0.40177 1.31958,-0.40177 h 2.81916 v -17.24171 q 0,-3.04662 -1.97941,-5.08883 -1.9494,-2.04222 -5.45836,-2.04222 -2.75917,0 -4.70857,1.50656 -1.40957,1.07133 -4.64859,5.05532 v 17.81088 h 2.84913 q 0.89973,0 1.28962,0.40177 0.38989,0.36827 0.38989,1.00434 0,0.60264 -0.38989,1.00437 -0.38989,0.40178 -1.28962,0.40178 h -8.21751 q -0.89972,0 -1.28961,-0.40178 -0.38989,-0.40173 -0.38989,-1.00437 0,-0.63607 0.38989,-1.00434 0.38989,-0.40177 1.28961,-0.40177 h 2.84913 v -36.35831 h -3.38901 q -0.89974,0 -1.28961,-0.40173 -0.38989,-0.40172 -0.38989,-1.03783 0,-0.60263 0.38989,-1.00436 0.38987,-0.40177 1.28961,-0.40177 z m 73.86769,13.02338 v 4.25181 q 2.63921,-2.97961 4.76856,-4.11793 2.12936,-1.13825 4.79857,-1.13825 2.87911,0 5.24841,1.37263 1.67948,1.00437 3.02909,3.34789 1.37957,2.31009 1.37957,4.75403 v 17.71044 h 2.12936 q 0.89972,0 1.28961,0.40177 0.38989,0.36827 0.38989,1.00434 0,0.60264 -0.38989,1.00437 -0.38989,0.40178 -1.28961,0.40178 h -6.74795 q -0.92974,0 -1.31962,-0.40178 -0.38987,-0.40173 -0.38987,-1.00437 0,-0.63607 0.38987,-1.00434 0.38988,-0.40177 1.31962,-0.40177 h 2.09936 v -17.24171 q 0,-2.97965 -1.9494,-5.02187 -1.94943,-2.0757 -5.21843,-2.0757 -2.48926,0 -4.31871,1.13827 -1.82944,1.1048 -5.21843,5.55753 v 17.64348 h 2.84915 q 0.89973,0 1.28961,0.40177 0.38988,0.36827 0.38988,1.00434 0,0.60264 -0.38988,1.00437 -0.38988,0.40178 -1.28961,0.40178 h -8.21751 q -0.89975,0 -1.28964,-0.40178 -0.38986,-0.40173 -0.38986,-1.00437 0,-0.63607 0.38986,-1.00434 0.38989,-0.40177 1.28964,-0.40177 h 2.84913 v -23.33491 h -2.12935 q -0.89974,0 -1.28963,-0.40177 -0.38987,-0.40173 -0.38987,-1.03783 0,-0.60261 0.38987,-1.00439 0.38989,-0.40172 1.28963,-0.40172 z m 59.08218,14.56338 q 0,6.42799 -4.13876,10.98114 -4.10875,4.55316 -9.92699,4.55316 -5.87824,0 -9.98702,-4.55316 -4.10873,-4.58663 -4.10873,-10.98114 0,-6.42797 4.10873,-10.98113 4.10878,-4.58662 9.98702,-4.58662 5.81824,0 9.92699,4.55315 4.13876,4.55314 4.13876,11.0146 z m -2.54924,0 q 0,-5.28969 -3.38897,-9.00585 -3.35898,-3.71619 -8.15755,-3.71619 -4.79853,0 -8.18752,3.74966 -3.359,3.71618 -3.359,8.97238 0,5.22274 3.359,8.9724 3.38899,3.74966 8.18752,3.74966 4.79857,0 8.15755,-3.71616 3.38897,-3.74967 3.38897,-9.0059 z m 60.52173,-11.71767 v 23.33491 h 11.06666 q 0.8997,0 1.28961,0.40177 0.38989,0.36827 0.38989,1.00434 0,0.60264 -0.38989,1.00437 -0.38991,0.40178 -1.28961,0.40178 h -19.70407 q -0.8997,0 -1.28958,-0.40178 -0.38989,-0.40173 -0.38989,-1.00437 0,-0.63607 0.38989,-1.00434 0.38988,-0.40177 1.28958,-0.40177 h 6.08818 v -23.33491 h -5.45836 q -0.89973,0 -1.28961,-0.40177 -0.38988,-0.40173 -0.38988,-1.03783 0,-0.60261 0.38988,-1.00439 0.38988,-0.40172 1.28961,-0.40172 h 5.45836 v -4.25187 q 0,-3.5488 2.57922,-6.16014 2.57922,-2.61137 6.83794,-2.61137 3.56893,0 7.61769,0.73652 1.52957,0.26784 1.82945,0.6361 0.32989,0.36828 0.32989,0.97091 0,0.60265 -0.3599,1.00438 -0.35986,0.36827 -0.9597,0.36827 -0.23994,0 -0.80976,-0.10042 -4.52863,-0.77005 -7.64767,-0.77005 -3.29901,0 -5.09846,1.80789 -1.76947,1.80787 -1.76947,4.11792 v 4.25187 h 11.78645 q 0.89973,0 1.28961,0.40172 0.38988,0.40178 0.38988,1.03788 0,0.60261 -0.38988,1.00434 -0.38988,0.40177 -1.28961,0.40177 z m 47.14577,26.14717 v -4.11792 q -5.15846,5.22272 -11.15661,5.22272 -3.68889,0 -5.60834,-2.24313 -2.48924,-2.94615 -2.48924,-6.86318 v -18.14566 h -3.389 q -0.89971,0 -1.28956,-0.40177 -0.38991,-0.40173 -0.38991,-1.03783 0,-0.60261 0.38991,-1.00439 0.38985,-0.40172 1.28956,-0.40172 h 5.90822 v 20.99137 q 0,2.74525 1.55957,4.51968 1.55953,1.77439 3.8988,1.77439 6.14814,0 11.2766,-6.29407 v -18.14566 h -4.6486 q -0.89973,0 -1.28962,-0.40177 -0.38986,-0.40173 -0.38986,-1.03783 0,-0.60261 0.38986,-1.00439 0.38989,-0.40172 1.28962,-0.40172 h 7.16785 v 26.18062 h 2.12936 q 0.89972,0 1.28959,0.40177 0.38989,0.36827 0.38989,1.00434 0,0.60264 -0.38989,1.00437 -0.38987,0.40178 -1.28959,0.40178 z m 23.06301,-28.99288 h 13.67587 q 0.89975,0 1.28962,0.40172 0.3899,0.40178 0.3899,1.03788 0,0.60261 -0.3899,1.00434 -0.38987,0.40177 -1.28962,0.40177 h -13.67587 v 18.71482 q 0,2.44394 1.73951,4.08443 1.76944,1.64048 5.15845,1.64048 2.54922,0 5.5183,-0.83699 2.96911,-0.87042 4.61861,-1.94177 0.59984,-0.43523 0.98973,-0.43523 0.47983,0 0.83973,0.43523 0.35988,0.40172 0.35988,0.97087 0,0.50219 -0.3899,0.93744 -0.95968,1.10481 -4.67858,2.41048 -3.68886,1.27221 -7.07783,1.27221 -4.40868,0 -7.01789,-2.31005 -2.60922,-2.31008 -2.60922,-6.2271 v -18.71482 h -4.64857 q -0.89974,0 -1.28963,-0.40177 -0.38989,-0.40173 -0.38989,-1.03783 0,-0.60261 0.38989,-1.00439 0.38989,-0.40172 1.28963,-0.40172 h 4.64857 v -8.30283 q 0,-1.00437 0.35991,-1.43962 0.35987,-0.43524 0.89973,-0.43524 0.56982,0 0.9297,0.43524 0.35987,0.43525 0.35987,1.43962 z m 50.65472,28.99288 v -4.11792 q -5.15843,5.22272 -11.15661,5.22272 -3.68887,0 -5.60834,-2.24313 -2.48922,-2.94615 -2.48922,-6.86318 v -18.14566 h -3.389 q -0.89973,0 -1.28958,-0.40177 -0.38989,-0.40173 -0.38989,-1.03783 0,-0.60261 0.38989,-1.00439 0.38985,-0.40172 1.28958,-0.40172 h 5.90826 v 20.99137 q 0,2.74525 1.55951,4.51968 1.55953,1.77439 3.8988,1.77439 6.14813,0 11.2766,-6.29407 v -18.14566 h -4.64859 q -0.89973,0 -1.28962,-0.40177 -0.38986,-0.40173 -0.38986,-1.03783 0,-0.60261 0.38986,-1.00439 0.38989,-0.40172 1.28962,-0.40172 h 7.16785 v 26.18062 h 2.12936 q 0.89971,0 1.28958,0.40177 0.38989,0.36827 0.38989,1.00434 0,0.60264 -0.38989,1.00437 -0.38987,0.40178 -1.28958,0.40178 z m 25.2224,-28.99288 v 7.09753 q 4.91851,-4.9549 7.34779,-6.36101 2.45925,-1.4396 4.52862,-1.4396 2.2493,0 4.16875,1.70745 1.94942,1.67392 1.94942,2.54441 0,0.6361 -0.38989,1.07129 -0.35988,0.40178 -0.9297,0.40178 -0.29994,0 -0.50989,-0.10031 -0.20991,-0.13398 -0.77975,-0.77006 -1.04969,-1.17175 -1.82946,-1.60694 -0.77976,-0.43524 -1.52952,-0.43524 -1.6495,0 -3.98881,1.47307 -2.30928,1.47307 -8.03756,7.19801 V 304.345 h 11.15663 q 0.92973,0 1.31959,0.40176 0.38989,0.36828 0.38989,1.00434 0,0.60264 -0.38989,1.00438 -0.38986,0.40178 -1.31959,0.40178 h -19.76405 q -0.89971,0 -1.28962,-0.36828 -0.38988,-0.40177 -0.38988,-1.00438 0,-0.56913 0.35989,-0.9374 0.38989,-0.40177 1.31961,-0.40177 h 6.08814 v -23.43535 h -4.64858 q -0.89974,0 -1.28959,-0.40177 -0.3899,-0.40173 -0.3899,-1.03783 0,-0.6026 0.35987,-1.00438 0.3899,-0.40173 1.31962,-0.40173 z m 53.50383,15.16601 h -25.67224 q 0.65981,5.45706 4.07879,8.80499 3.44894,3.31444 8.51742,3.31444 2.81913,0 5.90823,-1.03784 3.08903,-1.03788 5.03845,-2.7453 0.56984,-0.5022 0.98969,-0.5022 0.47987,0 0.83978,0.43523 0.35987,0.40173 0.35987,0.9709 0,0.56915 -0.47985,1.10482 -1.43956,1.67393 -5.12843,3.14702 -3.65892,1.43961 -7.52774,1.43961 -6.47803,0 -10.82676,-4.72057 -4.31867,-4.75404 -4.31867,-11.48329 0,-6.12667 4.04878,-10.51245 4.07876,-4.38574 10.07693,-4.38574 6.17816,0 10.16694,4.51965 3.9888,4.4862 3.92881,11.65073 z m -2.54923,-2.84569 q -0.74975,-4.65362 -3.95881,-7.5663 -3.17902,-2.91268 -7.58771,-2.91268 -4.40865,0 -7.58768,2.87917 -3.17905,2.87924 -3.9588,7.59981 z m 25.25241,8.60409 h 1.07967 q 1.67946,0 2.87911,1.33914 1.19961,1.30573 1.19961,3.18052 0,1.94179 -1.22962,3.24749 -1.19962,1.3057 -2.8491,1.3057 h -1.07967 q -1.67951,0 -2.87917,-1.3057 -1.1996,-1.33916 -1.1996,-3.21401 0,-1.94177 1.1996,-3.24744 1.22963,-1.3057 2.87917,-1.3057 z"
       id="text19"
       style="font-size:173.131px;font-family:Monospace;-inkscape-font-specification:Monospace;fill:#ffffff;fill-opacity:1;stroke-width:20.4394"
       aria-label="someone with no future." /></g></svg>
