<?xml version="1.0" encoding="UTF-8" standalone="no"?>

<svg
   width="296.99997mm"
   height="210mm"
   viewBox="0 0 1122.5196 793.70081"
   version="1.1"
   id="svg1"
   xml:space="preserve"
   xmlns:xlink="http://www.w3.org/1999/xlink"
   xmlns="http://www.w3.org/2000/svg"
   xmlns:svg="http://www.w3.org/2000/svg"><defs
     id="defs1"><linearGradient
       id="linearGradient5"><stop
         style="stop-color:#424242;stop-opacity:1;"
         offset="0"
         id="stop5" /><stop
         style="stop-color:#000000;stop-opacity:1;"
         offset="0.91744292"
         id="stop1" /><stop
         style="stop-color:#ffffff;stop-opacity:0;"
         offset="1"
         id="stop6" /></linearGradient><linearGradient
       id="linearGradient3"><stop
         style="stop-color:#ffffff;stop-opacity:1;"
         offset="0"
         id="stop3" /><stop
         style="stop-color:#4a4a4a;stop-opacity:0;"
         offset="1"
         id="stop4" /></linearGradient><linearGradient
       xlink:href="#linearGradient3"
       id="linearGradient4"
       x1="406.99841"
       y1="35.277668"
       x2="398.84869"
       y2="209.16165"
       gradientUnits="userSpaceOnUse"
       gradientTransform="matrix(0.99866778,0,0,1.6044702,0.75548853,-35.537487)" /><radialGradient
       xlink:href="#linearGradient5"
       id="radialGradient6"
       cx="519.7514"
       cy="196.48544"
       fx="519.7514"
       fy="196.48544"
       r="531.43335"
       gradientTransform="matrix(1.3450616,0.0515404,-0.0274402,0.68379493,-182.89365,-13.169723)"
       gradientUnits="userSpaceOnUse" /></defs><g
     id="layer1"><path
       id="rect1"
       style="opacity:1;fill:url(#radialGradient6);stroke:url(#linearGradient4);stroke-width:6.70891"
       d="M 53.271857,60.660996 H 1080.9061 c 7.901,0 14.2617,7.787773 14.2617,17.461373 V 588.32436 c 0,9.67361 -6.3607,17.46137 -14.2617,17.46137 H 53.271857 c -7.901054,0 -14.261831,-7.78776 -14.261831,-17.46137 V 78.122369 c 0,-9.6736 6.360777,-17.461373 14.261831,-17.461373 z" /><path
       d="M 109.88665,199.30797 H 62.195707 v -7.64038 L 102.39995,131.73438 V 131.296 H 69.446618 v 15.46865 q 0,1.94142 -0.707406,2.75555 -0.707406,0.81414 -1.827466,0.81414 -1.061108,0 -1.768514,-0.81414 -0.707406,-0.81413 -0.707406,-2.75555 v -20.72926 h 42.739104 v 7.45252 l -40.204233,59.99583 v 0.56363 h 37.964113 v -18.34945 q 0,-1.94142 0.64846,-2.75555 0.70741,-0.81414 1.82746,-0.81414 1.12007,0 1.76853,0.81414 0.70739,0.81413 0.70739,2.75555 z m 48.75206,0 -22.99069,-48.911 h -1.47376 q -1.76852,0 -2.53488,-0.75152 -0.76635,-0.75151 -0.76635,-1.87878 0,-0.81415 0.35371,-1.44041 0.41264,-0.68888 1.00216,-0.93938 0.64845,-0.31314 1.94536,-0.31314 h 13.55861 q 1.76851,0 2.53488,0.75152 0.76635,0.75151 0.76635,1.94141 0,1.12727 -0.76635,1.87878 -0.76637,0.75152 -2.53488,0.75152 h -6.66141 l 20.22002,43.14939 19.92527,-43.14939 h -6.66141 q -1.76852,0 -2.53487,-0.75152 -0.76636,-0.75151 -0.76636,-1.94141 0,-1.12727 0.76636,-1.87878 0.76635,-0.75152 2.53487,-0.75152 h 13.49967 q 1.82746,0 2.59382,0.75152 0.76636,0.75151 0.76636,1.94141 0,0.81414 -0.4716,1.50302 -0.47162,0.68888 -1.06112,0.9394 -0.58951,0.18788 -3.30123,0.18788 l -31.36165,67.82409 h 7.7225 q 1.76852,0 2.53488,0.68888 0.76635,0.75153 0.76635,1.94141 0,1.12728 -0.76635,1.87879 -0.76636,0.75151 -2.53488,0.75151 h -28.53203 q -1.76851,0 -2.53487,-0.75151 -0.76636,-0.68889 -0.76636,-1.87879 0,-1.18988 0.76636,-1.94141 0.76636,-0.68888 2.53487,-0.68888 h 15.50398 z m 56.12087,-54.23423 v 7.95352 q 5.18764,-5.57372 9.37312,-7.703 4.18549,-2.1293 9.43208,-2.1293 5.65925,0 10.31633,2.56767 3.30123,1.87879 5.954,6.26262 2.71173,4.32119 2.71173,8.8929 v 33.12922 h 4.18548 q 1.76852,0 2.53487,0.75152 0.76636,0.68888 0.76636,1.87878 0,1.12728 -0.76636,1.87879 -0.76635,0.75151 -2.53487,0.75151 h -13.26385 q -1.82747,0 -2.59383,-0.75151 -0.76635,-0.75151 -0.76635,-1.87879 0,-1.1899 0.76635,-1.87878 0.76636,-0.75152 2.59383,-0.75152 h 4.12653 v -32.25245 q 0,-5.57373 -3.83178,-9.39391 -3.83178,-3.88282 -10.25738,-3.88282 -4.8929,0 -8.48888,2.12929 -3.59597,2.06665 -10.25738,10.39593 v 33.00396 h 5.6003 q 1.76851,0 2.53487,0.75152 0.76635,0.68888 0.76635,1.87878 0,1.12728 -0.76635,1.87879 -0.76636,0.75151 -2.53487,0.75151 h -16.15244 q -1.76852,0 -2.53487,-0.75151 -0.76636,-0.75151 -0.76636,-1.87879 0,-1.1899 0.76636,-1.87878 0.76635,-0.75152 2.53487,-0.75152 h 5.6003 v -43.6504 h -4.18548 q -1.76853,0 -2.53488,-0.75152 -0.76635,-0.75151 -0.76635,-1.94141 0,-1.12727 0.76635,-1.87878 0.76635,-0.75152 2.53488,-0.75152 z m 116.13244,27.24238 q 0,12.0242 -8.13515,20.54136 -8.07623,8.51716 -19.51262,8.51716 -11.5543,0 -19.6305,-8.51716 -8.07623,-8.57978 -8.07623,-20.54136 0,-12.02423 8.07623,-20.54138 8.0762,-8.57978 19.6305,-8.57978 11.43639,0 19.51262,8.51714 8.13515,8.51717 8.13515,20.60402 z m -5.01078,0 q 0,-9.89494 -6.66141,-16.84644 -6.60244,-6.95149 -16.03452,-6.95149 -9.43209,0 -16.09349,7.01412 -6.60246,6.95149 -6.60246,16.78381 0,9.76967 6.60246,16.78379 6.6614,7.01413 16.09349,7.01413 9.43208,0 16.03452,-6.95151 6.66141,-7.01412 6.66141,-16.84641 z m 27.23513,-27.24238 v 5.32323 q 6.3077,-7.20201 12.67436,-7.20201 3.83177,0 6.72035,2.19192 2.88859,2.12928 4.83395,6.51311 3.30122,-4.38383 6.6614,-6.51311 3.41912,-2.19192 6.83827,-2.19192 5.36448,0 8.5478,3.69494 4.18549,4.75958 4.18549,10.39594 v 36.76153 h 4.18549 q 1.76851,0 2.53486,0.75152 0.76637,0.68888 0.76637,1.87878 0,1.12728 -0.76637,1.87879 -0.76635,0.75151 -2.53486,0.75151 h -9.13733 v -41.52113 q 0,-4.00806 -2.29907,-6.63836 -2.29907,-2.63029 -5.30555,-2.63029 -2.71171,0 -5.71819,2.1919 -3.00647,2.12929 -6.83826,8.45453 v 34.88275 h 4.12654 q 1.76851,0 2.53486,0.75152 0.76636,0.68888 0.76636,1.87878 0,1.12728 -0.76636,1.87879 -0.76635,0.75151 -2.53486,0.75151 h -9.13734 v -41.14536 q 0,-4.19595 -2.35801,-6.88888 -2.29907,-2.75554 -5.18764,-2.75554 -2.65278,0 -5.2466,1.81615 -3.59598,2.56767 -7.54566,8.83028 v 34.88275 h 4.18548 q 1.76852,0 2.53487,0.75152 0.76636,0.68888 0.76636,1.87878 0,1.12728 -0.76636,1.87879 -0.76635,0.75151 -2.53487,0.75151 h -13.32281 q -1.76851,0 -2.53487,-0.75151 -0.76635,-0.75151 -0.76635,-1.87879 0,-1.1899 0.76635,-1.87878 0.76636,-0.75152 2.53487,-0.75152 h 4.18549 v -43.6504 h -4.18549 q -1.76851,0 -2.53487,-0.75152 -0.76635,-0.75151 -0.76635,-1.94141 0,-1.12727 0.76635,-1.87878 0.76636,-0.75152 2.53487,-0.75152 z m 122.67598,27.24238 q 0,12.0242 -8.13517,20.54136 -8.07621,8.51716 -19.5126,8.51716 -11.55431,0 -19.63052,-8.51716 -8.07622,-8.57978 -8.07622,-20.54136 0,-12.02423 8.07622,-20.54138 8.07621,-8.57978 19.63052,-8.57978 11.43639,0 19.5126,8.51714 8.13517,8.51717 8.13517,20.60402 z m -5.01079,0 q 0,-9.89494 -6.66141,-16.84644 -6.60245,-6.95149 -16.03453,-6.95149 -9.43208,0 -16.09348,7.01412 -6.60246,6.95149 -6.60246,16.78381 0,9.76967 6.60246,16.78379 6.6614,7.01413 16.09348,7.01413 9.43208,0 16.03453,-6.95151 6.66141,-7.01412 6.66141,-16.84641 z m 33.77861,-27.24238 v 7.95352 q 5.18764,-5.57372 9.37312,-7.703 4.18549,-2.1293 9.43208,-2.1293 5.65925,0 10.31633,2.56767 3.30123,1.87879 5.954,6.26262 2.71173,4.32119 2.71173,8.8929 v 33.12922 h 4.18548 q 1.76852,0 2.53488,0.75152 0.76635,0.68888 0.76635,1.87878 0,1.12728 -0.76635,1.87879 -0.76636,0.75151 -2.53488,0.75151 h -13.26386 q -1.82746,0 -2.59382,-0.75151 -0.76636,-0.75151 -0.76636,-1.87879 0,-1.1899 0.76636,-1.87878 0.76636,-0.75152 2.59382,-0.75152 h 4.12654 v -32.25245 q 0,-5.57373 -3.83178,-9.39391 -3.83178,-3.88282 -10.25739,-3.88282 -4.8929,0 -8.48887,2.12929 -3.59598,2.06665 -10.25738,10.39593 v 33.00396 h 5.60029 q 1.76851,0 2.53487,0.75152 0.76635,0.68888 0.76635,1.87878 0,1.12728 -0.76635,1.87879 -0.76636,0.75151 -2.53487,0.75151 h -16.15244 q -1.76851,0 -2.53486,-0.75151 -0.76637,-0.75151 -0.76637,-1.87879 0,-1.1899 0.76637,-1.87878 0.76635,-0.75152 2.53486,-0.75152 h 5.60031 v -43.6504 h -4.1855 q -1.7685,0 -2.53486,-0.75152 -0.76636,-0.75151 -0.76636,-1.94141 0,-1.12727 0.76636,-1.87878 0.76636,-0.75152 2.53486,-0.75152 z m 175.14191,54.23423 v -7.57776 q -10.78794,9.64443 -23.04965,9.64443 -8.90151,0 -13.91231,-4.75959 -5.01079,-4.82222 -5.01079,-11.77373 0,-7.64037 6.60246,-13.33935 6.60244,-5.69898 19.27681,-5.69898 3.41912,0 7.42776,0.50102 4.00863,0.43837 8.66572,1.44039 v -8.51715 q 0,-4.3212 -3.77282,-7.51515 -3.77284,-3.19391 -11.3185,-3.19391 -5.77715,0 -16.21138,3.56968 -1.88642,0.62626 -2.41698,0.62626 -0.9432,0 -1.65061,-0.75151 -0.64846,-0.75152 -0.64846,-1.87878 0,-1.06465 0.58951,-1.69092 0.82531,-0.93938 6.66139,-2.56766 9.19629,-2.6303 13.91232,-2.6303 9.37313,0 14.61972,4.94746 5.2466,4.88484 5.2466,11.08483 v 34.82012 h 6.60245 q 1.82747,0 2.59382,0.75152 0.76636,0.68888 0.76636,1.87878 0,1.12728 -0.76636,1.87879 -0.76635,0.75151 -2.59382,0.75151 z m 0,-26.17772 q -3.47808,-1.06465 -7.36882,-1.56565 -3.89072,-0.50101 -8.19411,-0.50101 -10.78793,0 -16.85984,4.94747 -4.59814,3.69493 -4.59814,8.83026 0,4.7596 3.47808,8.01616 3.53703,3.25656 10.25738,3.25656 6.42561,0 11.90801,-2.69292 5.54134,-2.75556 11.37744,-8.70504 z m 85.00659,0.31312 h -50.46162 q 1.2969,10.20807 8.01726,16.47069 6.77931,6.19998 16.74194,6.19998 5.54134,0 11.61325,-1.94142 6.07189,-1.9414 9.90367,-5.13533 1.12006,-0.93939 1.94537,-0.93939 0.94321,0 1.65061,0.81413 0.70741,0.75152 0.70741,1.81616 0,1.06464 -0.94321,2.06666 -2.82962,3.13132 -10.08052,5.88686 -7.19196,2.69293 -14.79658,2.69293 -12.73331,0 -21.28113,-8.83029 -8.48888,-8.89291 -8.48888,-21.48076 0,-11.46058 7.95832,-19.66461 8.01728,-8.20402 19.80737,-8.20402 12.1438,0 19.98421,8.45452 7.84042,8.39191 7.72253,21.79389 z m -5.0108,-5.32321 q -1.47376,-8.70504 -7.78146,-14.1535 -6.24875,-5.44847 -14.91448,-5.44847 -8.66572,0 -14.91447,5.38584 -6.24875,5.38584 -7.78146,14.21613 z m 53.17337,-47.40798 v 73.33519 h 19.45367 q 1.82747,0 2.59382,0.75152 0.76635,0.68888 0.76635,1.87878 0,1.12728 -0.76635,1.87879 -0.76635,0.75151 -2.59382,0.75151 h -43.85917 q -1.76851,0 -2.53487,-0.75151 -0.76635,-0.75151 -0.76635,-1.87879 0,-1.1899 0.76635,-1.87878 0.76636,-0.75152 2.53487,-0.75152 h 19.45367 v -68.01198 h -14.26602 q -1.76852,0 -2.59382,-0.7515 -0.76637,-0.75152 -0.76637,-1.94141 0,-1.12727 0.76637,-1.87879 0.76635,-0.75151 2.59382,-0.75151 z m 72.39119,-2.6303 v 13.58987 h -7.30987 v -13.58987 z m 0.17685,26.99186 v 48.97363 h 19.45366 q 1.82747,0 2.59382,0.75152 0.76636,0.68888 0.76636,1.87878 0,1.12728 -0.76636,1.87879 -0.76635,0.75151 -2.59382,0.75151 h -43.85917 q -1.7685,0 -2.53487,-0.75151 -0.76636,-0.75151 -0.76636,-1.87879 0,-1.1899 0.76636,-1.87878 0.76637,-0.75152 2.53487,-0.75152 h 19.45367 v -43.6504 h -14.44287 q -1.76851,0 -2.59382,-0.75152 -0.76636,-0.75151 -0.76636,-1.87878 0,-1.1899 0.76636,-1.94141 0.76635,-0.75152 2.59382,-0.75152 z m 86.77505,54.23423 v -7.70301 q -10.13947,9.76968 -21.92958,9.76968 -7.25082,0 -11.02374,-4.19597 -4.89286,-5.51108 -4.89286,-12.83835 v -33.94335 h -6.6614 q -1.76851,0 -2.53486,-0.75152 -0.76637,-0.75151 -0.76637,-1.94141 0,-1.12727 0.76637,-1.87878 0.76635,-0.75152 2.53486,-0.75152 h 11.61321 v 39.26658 q 0,5.13534 3.06548,8.45453 3.0654,3.31919 7.66353,3.31919 12.08483,0 22.16536,-11.77372 v -33.94335 h -9.13732 q -1.76853,0 -2.53481,-0.75152 -0.76636,-0.75151 -0.76636,-1.94141 0,-1.12727 0.76636,-1.87878 0.76628,-0.75152 2.53481,-0.75152 h 14.08922 v 48.97363 h 4.18543 q 1.76852,0 2.5349,0.75152 0.76637,0.68888 0.76637,1.87878 0,1.12728 -0.76637,1.87879 -0.76638,0.75151 -2.5349,0.75151 z m 71.86067,-50.78978 q 0,-1.81617 0.7075,-2.6303 0.7074,-0.81415 1.7685,-0.81415 1.12,0 1.8275,0.81415 0.7074,0.81413 0.7074,2.75555 v 9.01816 q 0,1.87877 -0.7074,2.69291 -0.7075,0.81415 -1.8275,0.81415 -1.0022,0 -1.7096,-0.68889 -0.6485,-0.68888 -0.7664,-2.25453 -0.3537,-3.75758 -3.655,-6.19999 -4.8338,-3.50706 -12.7922,-3.50706 -8.312,0 -12.9101,3.56968 -3.4781,2.69292 -3.4781,6.01211 0,3.75757 4.1266,6.26262 2.8296,1.75353 10.729,2.69291 10.3163,1.1899 14.3248,2.69293 5.7184,2.19191 8.4891,6.07474 2.8295,3.88281 2.8295,8.39189 0,6.70099 -6.0719,11.96159 -6.072,5.19798 -17.803,5.19798 -11.7312,0 -19.2179,-6.32524 0,2.12927 -0.2358,2.75555 -0.2358,0.62625 -0.8843,1.06463 -0.5895,0.43839 -1.3558,0.43839 -1.0611,0 -1.7685,-0.81414 -0.7074,-0.81413 -0.7074,-2.69293 v -10.83431 q 0,-1.8788 0.6484,-2.69293 0.7075,-0.81414 1.8275,-0.81414 1.0611,0 1.7685,0.81414 0.7664,0.75151 0.7664,2.06666 0,2.88081 1.3558,4.82221 2.0633,3.00606 6.5435,5.01009 4.5392,1.94142 11.0827,1.94142 9.6679,0 14.3839,-3.8202 4.716,-3.82019 4.716,-8.07877 0,-4.88483 -4.7749,-7.82827 -4.8339,-2.94343 -14.0892,-3.94543 -9.1962,-1.00202 -13.2049,-2.6303 -4.0086,-1.62829 -6.2488,-4.88485 -2.2401,-3.25655 -2.2401,-7.01413 0,-6.76361 6.2488,-10.70906 6.2488,-4.00807 14.9145,-4.00807 10.2573,0 16.6829,5.32323 z"
       id="text6"
       style="font-size:127.194px;font-family:Monospace;-inkscape-font-specification:Monospace;fill:#ffffff;stroke-width:54.96"
       aria-label="Zynomon aelius" /><path
       id="rect6"
       style="opacity:1;fill:#ffffff;stroke-width:5.3"
       d="M 77.846965,238.37291 H 1044.6727 c 7.9116,0 14.2809,0.32216 14.2809,0.72234 0,0.40018 -6.3693,0.72234 -14.2809,0.72234 H 77.846965 c -7.911594,0 -14.280856,-0.32216 -14.280856,-0.72234 0,-0.40018 6.369262,-0.72234 14.280856,-0.72234 z" /><path
       d="m 161.93901,280.0056 q 0,-0.97091 0.35986,-1.40611 0.3599,-0.43523 0.89974,-0.43523 0.56983,0 0.92973,0.43523 0.35988,0.4352 0.35988,1.47307 v 4.82096 q 0,1.00437 -0.35988,1.43961 -0.3599,0.43524 -0.92973,0.43524 -0.50985,0 -0.86973,-0.36826 -0.3299,-0.36828 -0.38987,-1.20525 -0.17989,-2.00875 -1.85947,-3.31445 -2.45925,-1.87481 -6.50801,-1.87481 -4.22874,0 -6.56803,1.90829 -1.76946,1.43964 -1.76946,3.21399 0,2.00875 2.09936,3.34795 1.43956,0.9374 5.45835,1.43956 5.24841,0.63609 7.28779,1.43961 2.90912,1.17177 4.31871,3.24749 1.43955,2.07568 1.43955,4.48618 0,3.58227 -3.08907,6.39453 -3.08906,2.77874 -9.05725,2.77874 -5.9682,0 -9.77706,-3.38138 0,1.13825 -0.12008,1.47307 -0.12008,0.33481 -0.44987,0.56914 -0.2999,0.23437 -0.68979,0.23437 -0.53983,0 -0.89971,-0.43525 -0.3599,-0.43524 -0.3599,-1.4396 v -5.79188 q 0,-1.00437 0.32989,-1.43961 0.3599,-0.4352 0.92972,-0.4352 0.53983,0 0.89974,0.4352 0.38988,0.40177 0.38988,1.10483 0,1.54003 0.68979,2.57791 1.04967,1.60697 3.32901,2.67832 2.30928,1.03784 5.6383,1.03784 4.91851,0 7.31778,-2.04222 2.39926,-2.04221 2.39926,-4.31881 0,-2.61137 -2.42925,-4.18489 -2.45925,-1.57351 -7.16782,-2.10917 -4.67861,-0.53568 -6.71799,-1.40613 -2.03938,-0.87045 -3.17904,-2.61137 -1.13965,-1.74092 -1.13965,-3.74966 0,-3.61575 3.17903,-5.72493 3.17904,-2.14263 7.58771,-2.14263 5.21842,0 8.48745,2.84571 z m 42.61711,12.72204 q 0,6.42799 -4.13875,10.98114 -4.10877,4.55316 -9.92698,4.55316 -5.87824,0 -9.98701,-4.55316 -4.10878,-4.58663 -4.10878,-10.98114 0,-6.42797 4.10878,-10.98113 4.10877,-4.58662 9.98701,-4.58662 5.81821,0 9.92698,4.55315 4.13875,4.55314 4.13875,11.0146 z m -2.54923,0 q 0,-5.28969 -3.38897,-9.00585 -3.35897,-3.71619 -8.15755,-3.71619 -4.79854,0 -8.18753,3.74966 -3.35898,3.71618 -3.35898,8.97238 0,5.22274 3.35898,8.9724 3.38899,3.74966 8.18753,3.74966 4.79858,0 8.15755,-3.71616 3.38897,-3.74967 3.38897,-9.0059 z m 13.8558,-14.56338 v 2.84571 q 3.20905,-3.85008 6.44807,-3.85008 1.9494,0 3.41897,1.17175 1.46955,1.13829 2.45924,3.48184 1.6795,-2.34355 3.38901,-3.48184 1.73946,-1.17175 3.47892,-1.17175 2.72919,0 4.3487,1.97523 2.12936,2.54442 2.12936,5.55755 v 19.65221 h 2.12936 q 0.89972,0 1.28961,0.40177 0.38987,0.36827 0.38987,1.00434 0,0.60264 -0.38987,1.00437 -0.38989,0.40178 -1.28961,0.40178 h -4.6486 v -22.19665 q 0,-2.14264 -1.16967,-3.54879 -1.16961,-1.4061 -2.69917,-1.4061 -1.37957,0 -2.90913,1.17177 -1.52953,1.13825 -3.47892,4.51966 v 18.64785 h 2.09935 q 0.89973,0 1.28958,0.40177 0.38991,0.36827 0.38991,1.00434 0,0.60264 -0.38991,1.00437 -0.38985,0.40178 -1.28958,0.40178 h -4.64858 v -21.99579 q 0,-2.24307 -1.19965,-3.68267 -1.16964,-1.47308 -2.6392,-1.47308 -1.34958,0 -2.6692,0.97091 -1.82944,1.37263 -3.83886,4.72052 v 18.64785 h 2.12939 q 0.8997,0 1.28959,0.40177 0.38989,0.36827 0.38989,1.00434 0,0.60264 -0.38989,1.00437 -0.38989,0.40178 -1.28959,0.40178 h -6.77798 q -0.89973,0 -1.28959,-0.40178 -0.38988,-0.40173 -0.38988,-1.00437 0,-0.63607 0.38988,-1.00434 0.38986,-0.40177 1.28959,-0.40177 h 2.12937 v -23.33491 h -2.12937 q -0.89973,0 -1.28959,-0.40177 -0.38988,-0.40173 -0.38988,-1.03783 0,-0.60261 0.38988,-1.00439 0.38986,-0.40172 1.28959,-0.40172 z m 61.96131,15.16601 h -25.67226 q 0.65981,5.45706 4.07878,8.80499 3.44896,3.31444 8.51744,3.31444 2.81914,0 5.9082,-1.03784 3.08908,-1.03788 5.03849,-2.7453 0.56983,-0.5022 0.98967,-0.5022 0.47988,0 0.83978,0.43523 0.35988,0.40173 0.35988,0.9709 0,0.56915 -0.47987,1.10482 -1.43955,1.67393 -5.12844,3.14702 -3.65889,1.43961 -7.52771,1.43961 -6.47807,0 -10.82673,-4.72057 -4.3187,-4.75404 -4.3187,-11.48329 0,-6.12667 4.04877,-10.51245 4.07876,-4.38574 10.07695,-4.38574 6.17814,0 10.16695,4.51965 3.98878,4.4862 3.9288,11.65073 z m -2.54923,-2.84569 q -0.74978,-4.65362 -3.95882,-7.5663 -3.17902,-2.91268 -7.5877,-2.91268 -4.40866,0 -7.5877,2.87917 -3.17904,2.87924 -3.95882,7.59981 z m 39.85796,2.24306 q 0,6.42799 -4.13875,10.98114 -4.10875,4.55316 -9.92699,4.55316 -5.87822,0 -9.98699,-4.55316 -4.10876,-4.58663 -4.10876,-10.98114 0,-6.42797 4.10876,-10.98113 4.10877,-4.58662 9.98699,-4.58662 5.81824,0 9.92699,4.55315 4.13875,4.55314 4.13875,11.0146 z m -2.54922,0 q 0,-5.28969 -3.38897,-9.00585 -3.359,-3.71619 -8.15755,-3.71619 -4.79853,0 -8.18752,3.74966 -3.359,3.71618 -3.359,8.97238 0,5.22274 3.359,8.9724 3.38899,3.74966 8.18752,3.74966 4.79855,0 8.15755,-3.71616 3.38897,-3.74967 3.38897,-9.0059 z m 17.18482,-14.56338 v 4.25181 q 2.6392,-2.97961 4.76856,-4.11793 2.12935,-1.13825 4.79854,-1.13825 2.87914,0 5.24842,1.37263 1.67949,1.00437 3.02908,3.34789 1.37959,2.31009 1.37959,4.75403 v 17.71044 h 2.12935 q 0.89974,0 1.28961,0.40177 0.38988,0.36827 0.38988,1.00434 0,0.60264 -0.38988,1.00437 -0.38987,0.40178 -1.28961,0.40178 h -6.74796 q -0.92972,0 -1.31961,-0.40178 -0.38987,-0.40173 -0.38987,-1.00437 0,-0.63607 0.38987,-1.00434 0.38989,-0.40177 1.31961,-0.40177 h 2.09936 v -17.24171 q 0,-2.97965 -1.94942,-5.02187 -1.9494,-2.0757 -5.21841,-2.0757 -2.48926,0 -4.31869,1.13827 -1.82946,1.1048 -5.21842,5.55753 v 17.64348 h 2.84911 q 0.89975,0 1.28963,0.40177 0.38988,0.36827 0.38988,1.00434 0,0.60264 -0.38988,1.00437 -0.38988,0.40178 -1.28963,0.40178 h -8.21752 q -0.89972,0 -1.28958,-0.40178 -0.38989,-0.40173 -0.38989,-1.00437 0,-0.63607 0.38989,-1.00434 0.38986,-0.40177 1.28958,-0.40177 h 2.84915 v -23.33491 h -2.12935 q -0.89971,0 -1.2896,-0.40177 -0.38989,-0.40173 -0.38989,-1.03783 0,-0.60261 0.38989,-1.00439 0.38989,-0.40172 1.2896,-0.40172 z m 58.63229,15.16601 h -25.67225 q 0.6598,5.45706 4.07877,8.80499 3.44895,3.31444 8.51741,3.31444 2.81916,0 5.90822,-1.03784 3.08906,-1.03788 5.03849,-2.7453 0.56982,-0.5022 0.9897,-0.5022 0.47987,0 0.83975,0.43523 0.3599,0.40173 0.3599,0.9709 0,0.56915 -0.47986,1.10482 -1.43957,1.67393 -5.12845,3.14702 -3.65889,1.43961 -7.52775,1.43961 -6.47803,0 -10.82672,-4.72057 -4.31869,-4.75404 -4.31869,-11.48329 0,-6.12667 4.04877,-10.51245 4.07878,-4.38574 10.07697,-4.38574 6.17812,0 10.16692,4.51965 3.98881,4.4862 3.92882,11.65073 z m -2.54925,-2.84569 q -0.74974,-4.65362 -3.95879,-7.5663 -3.17903,-2.91268 -7.5877,-2.91268 -4.40867,0 -7.58772,2.87917 -3.17904,2.87924 -3.9588,7.59981 z m 71.31849,16.67256 -3.11907,0.0338 -5.54833,-18.0787 -5.51832,18.0787 -3.11907,-0.0338 -5.21843,-26.14717 h -1.22962 q -0.89972,0 -1.28961,-0.40177 -0.38986,-0.40173 -0.38986,-1.03783 0,-0.60261 0.38986,-1.00439 0.38989,-0.40172 1.28961,-0.40172 h 6.92791 q 0.89974,0 1.28962,0.40172 0.38987,0.40178 0.38987,1.03788 0,0.60261 -0.38987,1.00434 -0.38988,0.40177 -1.28962,0.40177 h -3.20902 l 4.46865,22.29708 5.36838,-17.81089 h 2.99908 l 5.51835,17.81089 4.28869,-22.29708 h -3.17904 q -0.89971,0 -1.31959,-0.40177 -0.38989,-0.40173 -0.38989,-1.03783 0,-0.60261 0.38989,-1.00439 0.38988,-0.40172 1.31959,-0.40172 h 6.89793 q 0.9297,0 1.31959,0.40172 0.38989,0.40178 0.38989,1.03788 0,0.60261 -0.38989,1.00434 -0.38989,0.40177 -1.31959,0.40177 h -1.19966 z m 29.4211,-43.42239 v 7.26496 h -3.71886 v -7.26496 z m 0.09,14.42951 v 26.18062 h 9.89701 q 0.92974,0 1.3196,0.40177 0.38988,0.36827 0.38988,1.00434 0,0.60264 -0.38988,1.00437 -0.38986,0.40178 -1.3196,0.40178 h -22.3132 q -0.89975,0 -1.28963,-0.40178 -0.38985,-0.40173 -0.38985,-1.00437 0,-0.63607 0.38985,-1.00434 0.38988,-0.40177 1.28963,-0.40177 h 9.89699 v -23.33491 h -7.34775 q -0.89975,0 -1.31963,-0.40177 -0.38987,-0.40173 -0.38987,-1.00434 0,-0.6361 0.38987,-1.03788 0.38989,-0.40172 1.31963,-0.40172 z m 30.35085,0 h 13.67586 q 0.89972,0 1.28961,0.40172 0.38989,0.40178 0.38989,1.03788 0,0.60261 -0.38989,1.00434 -0.38989,0.40177 -1.28961,0.40177 h -13.67586 v 18.71482 q 0,2.44394 1.73947,4.08443 1.76946,1.64048 5.15845,1.64048 2.54922,0 5.51833,-0.83699 2.9691,-0.87042 4.61859,-1.94177 0.59983,-0.43523 0.98972,-0.43523 0.47985,0 0.83976,0.43523 0.35988,0.40172 0.35988,0.97087 0,0.50219 -0.38989,0.93744 -0.95972,1.10481 -4.67859,2.41048 -3.68889,1.27221 -7.07786,1.27221 -4.40866,0 -7.01789,-2.31005 -2.60919,-2.31008 -2.60919,-6.2271 v -18.71482 h -4.64867 q -0.89974,0 -1.28959,-0.40177 -0.38989,-0.40173 -0.38989,-1.03783 0,-0.60261 0.38989,-1.00439 0.38985,-0.40172 1.28959,-0.40172 h 4.64861 v -8.30283 q 0,-1.00437 0.35988,-1.43962 0.35989,-0.43524 0.89973,-0.43524 0.56983,0 0.92973,0.43524 0.35988,0.43525 0.35988,1.43962 z m 33.73981,-13.02338 v 17.30869 q 2.39928,-2.91268 4.58862,-4.08445 2.21932,-1.20523 4.9485,-1.20523 2.93911,0 4.97849,1.17175 2.06939,1.13829 3.44896,3.54877 1.3796,2.37702 1.3796,5.02185 v 17.44262 h 2.81913 q 0.92972,0 1.28962,0.40177 0.38989,0.36827 0.38989,1.00434 0,0.60264 -0.38989,1.00437 -0.3599,0.40178 -1.28962,0.40178 h -8.18753 q -0.92969,0 -1.31958,-0.40178 -0.38989,-0.40173 -0.38989,-1.00437 0,-0.63607 0.38989,-1.00434 0.38989,-0.40177 1.31958,-0.40177 h 2.81916 v -17.24171 q 0,-3.04662 -1.97941,-5.08883 -1.9494,-2.04222 -5.45836,-2.04222 -2.75917,0 -4.70857,1.50656 -1.40957,1.07133 -4.64859,5.05532 v 17.81088 h 2.84913 q 0.89973,0 1.28962,0.40177 0.38989,0.36827 0.38989,1.00434 0,0.60264 -0.38989,1.00437 -0.38989,0.40178 -1.28962,0.40178 h -8.21751 q -0.89972,0 -1.28961,-0.40178 -0.38989,-0.40173 -0.38989,-1.00437 0,-0.63607 0.38989,-1.00434 0.38989,-0.40177 1.28961,-0.40177 h 2.84913 v -36.35831 h -3.38901 q -0.89974,0 -1.28961,-0.40173 -0.38989,-0.40172 -0.38989,-1.03783 0,-0.60263 0.38989,-1.00436 0.38987,-0.40177 1.28961,-0.40177 z m 73.86769,13.02338 v 4.25181 q 2.63921,-2.97961 4.76856,-4.11793 2.12936,-1.13825 4.79857,-1.13825 2.87911,0 5.24841,1.37263 1.67948,1.00437 3.02909,3.34789 1.37957,2.31009 1.37957,4.75403 v 17.71044 h 2.12936 q 0.89972,0 1.28961,0.40177 0.38989,0.36827 0.38989,1.00434 0,0.60264 -0.38989,1.00437 -0.38989,0.40178 -1.28961,0.40178 h -6.74795 q -0.92974,0 -1.31962,-0.40178 -0.38987,-0.40173 -0.38987,-1.00437 0,-0.63607 0.38987,-1.00434 0.38988,-0.40177 1.31962,-0.40177 h 2.09936 v -17.24171 q 0,-2.97965 -1.9494,-5.02187 -1.94943,-2.0757 -5.21843,-2.0757 -2.48926,0 -4.31871,1.13827 -1.82944,1.1048 -5.21843,5.55753 v 17.64348 h 2.84915 q 0.89973,0 1.28961,0.40177 0.38988,0.36827 0.38988,1.00434 0,0.60264 -0.38988,1.00437 -0.38988,0.40178 -1.28961,0.40178 h -8.21751 q -0.89975,0 -1.28964,-0.40178 -0.38986,-0.40173 -0.38986,-1.00437 0,-0.63607 0.38986,-1.00434 0.38989,-0.40177 1.28964,-0.40177 h 2.84913 v -23.33491 h -2.12935 q -0.89974,0 -1.28963,-0.40177 -0.38987,-0.40173 -0.38987,-1.03783 0,-0.60261 0.38987,-1.00439 0.38989,-0.40172 1.28963,-0.40172 z m 59.08218,14.56338 q 0,6.42799 -4.13876,10.98114 -4.10875,4.55316 -9.92699,4.55316 -5.87824,0 -9.98702,-4.55316 -4.10873,-4.58663 -4.10873,-10.98114 0,-6.42797 4.10873,-10.98113 4.10878,-4.58662 9.98702,-4.58662 5.81824,0 9.92699,4.55315 4.13876,4.55314 4.13876,11.0146 z m -2.54924,0 q 0,-5.28969 -3.38897,-9.00585 -3.35898,-3.71619 -8.15755,-3.71619 -4.79853,0 -8.18752,3.74966 -3.359,3.71618 -3.359,8.97238 0,5.22274 3.359,8.9724 3.38899,3.74966 8.18752,3.74966 4.79857,0 8.15755,-3.71616 3.38897,-3.74967 3.38897,-9.0059 z m 60.52173,-11.71767 v 23.33491 h 11.06666 q 0.8997,0 1.28961,0.40177 0.38989,0.36827 0.38989,1.00434 0,0.60264 -0.38989,1.00437 -0.38991,0.40178 -1.28961,0.40178 h -19.70407 q -0.8997,0 -1.28958,-0.40178 -0.38989,-0.40173 -0.38989,-1.00437 0,-0.63607 0.38989,-1.00434 0.38988,-0.40177 1.28958,-0.40177 h 6.08818 v -23.33491 h -5.45836 q -0.89973,0 -1.28961,-0.40177 -0.38988,-0.40173 -0.38988,-1.03783 0,-0.60261 0.38988,-1.00439 0.38988,-0.40172 1.28961,-0.40172 h 5.45836 v -4.25187 q 0,-3.5488 2.57922,-6.16014 2.57922,-2.61137 6.83794,-2.61137 3.56893,0 7.61769,0.73652 1.52957,0.26784 1.82945,0.6361 0.32989,0.36828 0.32989,0.97091 0,0.60265 -0.3599,1.00438 -0.35986,0.36827 -0.9597,0.36827 -0.23994,0 -0.80976,-0.10042 -4.52863,-0.77005 -7.64767,-0.77005 -3.29901,0 -5.09846,1.80789 -1.76947,1.80787 -1.76947,4.11792 v 4.25187 h 11.78645 q 0.89973,0 1.28961,0.40172 0.38988,0.40178 0.38988,1.03788 0,0.60261 -0.38988,1.00434 -0.38988,0.40177 -1.28961,0.40177 z m 47.14577,26.14717 v -4.11792 q -5.15846,5.22272 -11.15661,5.22272 -3.68889,0 -5.60834,-2.24313 -2.48924,-2.94615 -2.48924,-6.86318 v -18.14566 h -3.389 q -0.89971,0 -1.28956,-0.40177 -0.38991,-0.40173 -0.38991,-1.03783 0,-0.60261 0.38991,-1.00439 0.38985,-0.40172 1.28956,-0.40172 h 5.90822 v 20.99137 q 0,2.74525 1.55957,4.51968 1.55953,1.77439 3.8988,1.77439 6.14814,0 11.2766,-6.29407 v -18.14566 h -4.6486 q -0.89973,0 -1.28962,-0.40177 -0.38986,-0.40173 -0.38986,-1.03783 0,-0.60261 0.38986,-1.00439 0.38989,-0.40172 1.28962,-0.40172 h 7.16785 v 26.18062 h 2.12936 q 0.89972,0 1.28959,0.40177 0.38989,0.36827 0.38989,1.00434 0,0.60264 -0.38989,1.00437 -0.38987,0.40178 -1.28959,0.40178 z m 23.06301,-28.99288 h 13.67587 q 0.89975,0 1.28962,0.40172 0.3899,0.40178 0.3899,1.03788 0,0.60261 -0.3899,1.00434 -0.38987,0.40177 -1.28962,0.40177 h -13.67587 v 18.71482 q 0,2.44394 1.73951,4.08443 1.76944,1.64048 5.15845,1.64048 2.54922,0 5.5183,-0.83699 2.96911,-0.87042 4.61861,-1.94177 0.59984,-0.43523 0.98973,-0.43523 0.47983,0 0.83973,0.43523 0.35988,0.40172 0.35988,0.97087 0,0.50219 -0.3899,0.93744 -0.95968,1.10481 -4.67858,2.41048 -3.68886,1.27221 -7.07783,1.27221 -4.40868,0 -7.01789,-2.31005 -2.60922,-2.31008 -2.60922,-6.2271 v -18.71482 h -4.64857 q -0.89974,0 -1.28963,-0.40177 -0.38989,-0.40173 -0.38989,-1.03783 0,-0.60261 0.38989,-1.00439 0.38989,-0.40172 1.28963,-0.40172 h 4.64857 v -8.30283 q 0,-1.00437 0.35991,-1.43962 0.35987,-0.43524 0.89973,-0.43524 0.56982,0 0.9297,0.43524 0.35987,0.43525 0.35987,1.43962 z m 50.65472,28.99288 v -4.11792 q -5.15843,5.22272 -11.15661,5.22272 -3.68887,0 -5.60834,-2.24313 -2.48922,-2.94615 -2.48922,-6.86318 v -18.14566 h -3.389 q -0.89973,0 -1.28958,-0.40177 -0.38989,-0.40173 -0.38989,-1.03783 0,-0.60261 0.38989,-1.00439 0.38985,-0.40172 1.28958,-0.40172 h 5.90826 v 20.99137 q 0,2.74525 1.55951,4.51968 1.55953,1.77439 3.8988,1.77439 6.14813,0 11.2766,-6.29407 v -18.14566 h -4.64859 q -0.89973,0 -1.28962,-0.40177 -0.38986,-0.40173 -0.38986,-1.03783 0,-0.60261 0.38986,-1.00439 0.38989,-0.40172 1.28962,-0.40172 h 7.16785 v 26.18062 h 2.12936 q 0.89971,0 1.28958,0.40177 0.38989,0.36827 0.38989,1.00434 0,0.60264 -0.38989,1.00437 -0.38987,0.40178 -1.28958,0.40178 z m 25.2224,-28.99288 v 7.09753 q 4.91851,-4.9549 7.34779,-6.36101 2.45925,-1.4396 4.52862,-1.4396 2.2493,0 4.16875,1.70745 1.94942,1.67392 1.94942,2.54441 0,0.6361 -0.38989,1.07129 -0.35988,0.40178 -0.9297,0.40178 -0.29994,0 -0.50989,-0.10031 -0.20991,-0.13398 -0.77975,-0.77006 -1.04969,-1.17175 -1.82946,-1.60694 -0.77976,-0.43524 -1.52952,-0.43524 -1.6495,0 -3.98881,1.47307 -2.30928,1.47307 -8.03756,7.19801 V 304.345 h 11.15663 q 0.92973,0 1.31959,0.40176 0.38989,0.36828 0.38989,1.00434 0,0.60264 -0.38989,1.00438 -0.38986,0.40178 -1.31959,0.40178 h -19.76405 q -0.89971,0 -1.28962,-0.36828 -0.38988,-0.40177 -0.38988,-1.00438 0,-0.56913 0.35989,-0.9374 0.38989,-0.40177 1.31961,-0.40177 h 6.08814 v -23.43535 h -4.64858 q -0.89974,0 -1.28959,-0.40177 -0.3899,-0.40173 -0.3899,-1.03783 0,-0.6026 0.35987,-1.00438 0.3899,-0.40173 1.31962,-0.40173 z m 53.50383,15.16601 h -25.67224 q 0.65981,5.45706 4.07879,8.80499 3.44894,3.31444 8.51742,3.31444 2.81913,0 5.90823,-1.03784 3.08903,-1.03788 5.03845,-2.7453 0.56984,-0.5022 0.98969,-0.5022 0.47987,0 0.83978,0.43523 0.35987,0.40173 0.35987,0.9709 0,0.56915 -0.47985,1.10482 -1.43956,1.67393 -5.12843,3.14702 -3.65892,1.43961 -7.52774,1.43961 -6.47803,0 -10.82676,-4.72057 -4.31867,-4.75404 -4.31867,-11.48329 0,-6.12667 4.04878,-10.51245 4.07876,-4.38574 10.07693,-4.38574 6.17816,0 10.16694,4.51965 3.9888,4.4862 3.92881,11.65073 z m -2.54923,-2.84569 q -0.74975,-4.65362 -3.95881,-7.5663 -3.17902,-2.91268 -7.58771,-2.91268 -4.40865,0 -7.58768,2.87917 -3.17905,2.87924 -3.9588,7.59981 z m 25.25241,8.60409 h 1.07967 q 1.67946,0 2.87911,1.33914 1.19961,1.30573 1.19961,3.18052 0,1.94179 -1.22962,3.24749 -1.19962,1.3057 -2.8491,1.3057 h -1.07967 q -1.67951,0 -2.87917,-1.3057 -1.1996,-1.33916 -1.1996,-3.21401 0,-1.94177 1.1996,-3.24744 1.22963,-1.3057 2.87917,-1.3057 z"
       id="text19"
       style="font-size:173.131px;font-family:Monospace;-inkscape-font-specification:Monospace;fill:#ffffff;fill-opacity:1;stroke-width:20.4394"
       aria-label="someone with no future." /></g></svg>
